<?xml version="1.0" encoding="utf-8"?>
<!-- Generator: Adobe Illustrator 18.1.1, SVG Export Plug-In . SVG Version: 6.00 Build 0)  -->
<svg version="1.1" id="图层_1" xmlns="http://www.w3.org/2000/svg" xmlns:xlink="http://www.w3.org/1999/xlink" x="0px" y="0px"
	 viewBox="0 0 50 50" enable-background="new 0 0 50 50" xml:space="preserve">
<g>
	<path fill="#FFFFFF" d="M42.7,7.5C38,2.7,31.7,0.1,25,0.1S12,2.7,7.3,7.5C2.6,12.2,0,18.5,0,25.1s2.6,13,7.3,17.7
		c4.7,4.7,11,7.3,17.7,7.3s13-2.6,17.7-7.3c4.7-4.7,7.3-11,7.3-17.7S47.4,12.2,42.7,7.5L42.7,7.5z M41.6,41.7
		c-4.4,4.4-10.3,6.9-16.6,6.9c-6.3,0-12.1-2.4-16.6-6.9C4,37.3,1.6,31.4,1.6,25.1C1.6,18.9,4,13,8.4,8.6C12.9,4.1,18.7,1.7,25,1.7
		c6.3,0,12.1,2.4,16.6,6.9c4.4,4.4,6.9,10.3,6.9,16.6C48.4,31.4,46,37.3,41.6,41.7L41.6,41.7z M41.6,41.7"/>
	<path fill="#FFFFFF" d="M25,4.3c-11.5,0-20.8,9.3-20.8,20.8C4.2,36.6,13.5,46,25,46c11.5,0,20.8-9.3,20.8-20.8
		C45.8,13.6,36.5,4.3,25,4.3L25,4.3z M25,44.4c-10.6,0-19.3-8.6-19.3-19.3C5.7,14.5,14.4,5.9,25,5.9c10.6,0,19.3,8.6,19.3,19.3
		C44.3,35.7,35.6,44.4,25,44.4L25,44.4z M25,44.4"/>
	<path fill="#FFFFFF" d="M30.6,24c1.1-0.9,1.8-2.3,1.8-3.9c0-2.7-2.2-5-5-5h-0.9v-1.7c0-0.4-0.4-0.8-0.8-0.8c-0.4,0-0.8,0.4-0.8,0.8
		v1.7h-1.8v-1.7c0-0.4-0.4-0.8-0.8-0.8c-0.4,0-0.8,0.4-0.8,0.8v1.7h-3.4c-0.4,0-0.8,0.4-0.8,0.8c0,0.4,0.4,0.8,0.8,0.8h0.9v16.8
		h-0.9c-0.4,0-0.8,0.4-0.8,0.8c0,0.4,0.4,0.8,0.8,0.8h3.4v1.7c0,0.4,0.4,0.8,0.8,0.8c0.4,0,0.8-0.4,0.8-0.8v-1.7h1.8v1.7
		c0,0.4,0.4,0.8,0.8,0.8c0.4,0,0.8-0.4,0.8-0.8v-1.7h1.7c3.2,0,5.8-2.6,5.8-5.8C34.1,26.9,32.7,24.9,30.6,24L30.6,24z M20.8,16.7
		h6.7c1.9,0,3.4,1.5,3.4,3.4c0,1.9-1.5,3.4-3.4,3.4h-6.7V16.7z M28.3,33.5h-7.6v-8.5h7.6c2.3,0,4.2,1.9,4.2,4.2
		C32.6,31.6,30.7,33.5,28.3,33.5L28.3,33.5z M28.3,33.5"/>
</g>
</svg>
