<?xml version="1.0" encoding="utf-8"?>
<!-- Generator: Adobe Illustrator 22.0.1, SVG Export Plug-In . SVG Version: 6.00 Build 0)  -->
<svg version="1.1" id="Layer_1" xmlns="http://www.w3.org/2000/svg" xmlns:xlink="http://www.w3.org/1999/xlink" x="0px" y="0px"
	 viewBox="0 0 595.3 356.6" style="enable-background:new 0 0 595.3 356.6;" xml:space="preserve">
<style type="text/css">
	.st0{fill:#FFFFFF;}
</style>
<g>
	<path class="st0" d="M301.3,40.4c-43.1,0-78.1,35-78.1,78.1s35,78.1,78.1,78.1s78.1-35,78.1-78.1S344.5,40.4,301.3,40.4z
		 M321.9,135.5c-5.3,0-18.1,0.3-18.1,0.3l-5.7,22.5H274l5.6-22h-37.8l6.1-18.1c0,0,65.7,0.2,71.1,0c5.4-0.2,13.8-1.5,14-12.4
		c0.2-14.8-22.4-14-24.5-0.8c-1.3,8.3-1.3,10.3-1.3,10.3l-21.4-0.1l4.2-19.6l-34.8,0l5.2-18.4c0,0,51.1,0.2,60.6,0.2
		s35.1,2.5,35.1,25.9C356.1,129.3,331.3,135.5,321.9,135.5z"/>
	<g>
		<polygon class="st0" points="86.9,224.1 105.3,224.1 98.7,247.9 119.1,247.9 125.7,224.1 143.7,224.1 126.5,286.7 109.6,286.7 
			115.4,262.4 94.5,262.4 87.5,286.7 69.9,286.7 		"/>
		<path class="st0" d="M143.7,238.9H161l0.9,28.2l16.2-28.2h17.5l-28,44.2c0,0-9.1,16.5-22.8,17.1c-6.3,0-9.3-1.1-12.6-3.6
			c1.9-3,5.4-9.8,5.4-9.8s3.7,3.3,9.3,1.3c3.3-1.3,2.2-6.4,2.2-6.4L143.7,238.9z"/>
		<path class="st0" d="M484.4,238.9h17.3l0.9,28.2l16.2-28.2h17.5l-28,44.2c0,0-9.1,16.5-22.8,17.1c-6.3,0-9.3-1.1-12.6-3.6
			c1.9-3,5.4-9.8,5.4-9.8s3.7,3.3,9.3,1.3c3.3-1.3,2.2-6.4,2.2-6.4L484.4,238.9z"/>
		<path class="st0" d="M234.5,238.9c-8.7-3.2-16.2,0.8-20.1,5.8c0.8-3.6,1-5.8,1-5.8h-15.2l-16.7,61.3h16.7l5.7-21.4
			c0,0,4.4,7.4,12.2,8c0,0,14.3,1.9,21.6-11.2S248.4,244,234.5,238.9z M226.9,266.2c-2.6,5.8-8.6,8.8-13.3,6.6
			c-4.8-2.1-6.5-8.6-3.9-14.3c2.6-5.8,8.6-8.8,13.3-6.6C227.8,254,229.5,260.4,226.9,266.2z"/>
		<path class="st0" d="M277,238.9c-18.1-0.7-29.2,13.9-29.2,28.3s18.7,29.5,41,13.1c-4-5.5-7.5-9-7.5-9c-6,6-20.2,5.5-19.4-5.1h31.8
			C293.8,266.2,304,240.1,277,238.9z M282.9,259.4c-9,0-19.6,0-19.6,0C265.1,246.5,284.6,244.6,282.9,259.4z"/>
		<path class="st0" d="M306.3,238.9l-12.1,46.8h15.7c0,0,3.4-21.5,10.1-26.2c6.7-4.7,11.8-4.4,14.3-4.1c1.1-6.1,4.4-17.3,4.4-17.3
			c-4.4-0.8-12.1,0.9-18.4,9.1c1.2-4.2,2.2-8.2,2.2-8.2H306.3z"/>
		<path class="st0" d="M364.3,224.3l-3.9,13.9l26.3,0l-3.1,14.8l16.2,0.1c0,0,0-1.6,1-7.8c1.5-10,18.7-10.6,18.5,0.6
			c-0.1,8.2-6.5,9.2-10.6,9.4c-4.1,0.1-53.8,0-53.8,0l-4.6,13.7h28.6l-4.2,16.7h18.3l4.3-17.1c0,0,9.7-0.2,13.7-0.2
			c7.1,0,25.9-4.6,25.9-24.3c0-17.8-19.4-19.6-26.6-19.6C403,224.4,364.3,224.3,364.3,224.3z"/>
		<path class="st0" d="M468.8,240.1c-10.9-1.5-17.7-0.8-27.6,1.1l1.4,10.8c0,0,12.5-2.1,18.3-0.5c4.3,1.2,2.4,7.3,2.4,7.3
			s-9.9-3.9-21,0c-8.6,3-17.2,15-8,25.6c4.6,4.2,13.1,4.6,21.6-2.1c-0.2,1.7-1,4.7-1,4.7h16.3c0,0,7.1-24.9,7.8-28.2
			S483.7,242.1,468.8,240.1z M458.5,273.6c-2.6,3.3-6.3,3.9-8.2,2.8c-2.6-1.5-3.7-5.3-1.5-8.3c1.8-2.6,8.9-2.8,11.9-2.5
			C462.3,266,461.1,270.4,458.5,273.6z"/>
	</g>
</g>
</svg>
