<?xml version="1.0" encoding="utf-8"?>
<!-- Generator: Adobe Illustrator 22.0.1, SVG Export Plug-In . SVG Version: 6.00 Build 0)  -->
<svg version="1.1" id="Layer_1" xmlns="http://www.w3.org/2000/svg" xmlns:xlink="http://www.w3.org/1999/xlink" x="0px" y="0px"
	 viewBox="0 0 595.3 356.6" style="enable-background:new 0 0 595.3 356.6;" xml:space="preserve">
<style type="text/css">
	.st0{fill:#2386E3;}
	.st1{fill:#2665A3;}
	.st2{fill:#FFFFFF;}
	.st3{fill:#03121C;}
</style>
<g>
	<circle class="st0" cx="300.9" cy="118.5" r="78.2"/>
	<path class="st1" d="M263.8,86.3l-9.2,9.3l12.1,9.1l26.7,0l-8.2,10.5l4,9.1l21.4,0.1c0,0,0.1-2.1,1.3-10.4c2-13.2,24.7-14,24.5,0.8
		c-0.2,10.9-8.6,12.2-14,12.4c-5.4,0.2-71.2,0-71.2,0l-10.1,9l8.7,9.1h33.2l-9.6,12.9l7.2,9.1h21l5.8-22.6c0,0,12.8-0.3,18.1-0.3
		c9.4,0,34.2-6.1,34.2-32.1c0-23.5-25.7-26-35.2-26S263.8,86.3,263.8,86.3z"/>
	<path class="st2" d="M259.8,77.2l-5.2,18.4l34.8,0l-4.2,19.6l21.4,0.1c0,0,0.1-2.1,1.3-10.4c2-13.2,24.7-14,24.5,0.8
		c-0.2,10.9-8.6,12.2-14,12.4c-5.4,0.2-71.2,0-71.2,0l-6.1,18.1h37.8l-5.6,22h24.2l5.8-22.6c0,0,12.8-0.3,18.1-0.3
		c9.4,0,34.2-6.1,34.2-32.1c0-23.5-25.7-26-35.2-26C311,77.3,259.8,77.2,259.8,77.2z"/>
</g>
<g>
	<polygon class="st3" points="86,224.2 104.5,224.2 97.9,248.2 118.3,248.2 124.9,224.2 143,224.2 125.7,287 108.7,287 114.5,262.7 
		93.6,262.7 86.6,287 69,287 	"/>
	<path class="st3" d="M143,239.1h17.4l0.9,28.2l16.2-28.2h17.6l-28.1,44.3c0,0-9.1,16.6-22.9,17.1c-6.4,0-9.3-1.1-12.6-3.6
		c1.9-3,5.4-9.8,5.4-9.8s3.7,3.3,9.4,1.3c3.3-1.3,2.2-6.4,2.2-6.4L143,239.1z"/>
	<path class="st0" d="M484.3,239.1h17.4l0.9,28.2l16.2-28.2h17.6l-28.1,44.3c0,0-9.1,16.6-22.9,17.1c-6.4,0-9.3-1.1-12.6-3.6
		c1.9-3,5.4-9.8,5.4-9.8s3.7,3.3,9.4,1.3c3.3-1.3,2.2-6.4,2.2-6.4L484.3,239.1z"/>
	<path class="st3" d="M233.9,239.1c-8.7-3.2-16.2,0.8-20.1,5.9c0.8-3.6,1-5.9,1-5.9h-15.2l-16.7,61.4h16.7l5.7-21.5
		c0,0,4.4,7.4,12.3,8c0,0,14.3,1.9,21.7-11.2S247.9,244.2,233.9,239.1z M226.3,266.5c-2.6,5.8-8.6,8.8-13.3,6.6
		c-4.8-2.1-6.5-8.6-3.9-14.4c2.6-5.8,8.6-8.8,13.3-6.6C227.2,254.2,228.9,260.7,226.3,266.5z"/>
	<path class="st3" d="M276.5,239.1c-18.1-0.7-29.2,13.9-29.2,28.4c0,14.5,18.8,29.6,41,13.1c-4-5.5-7.5-9-7.5-9
		c-6,6-20.3,5.5-19.4-5.1h31.9C293.3,266.5,303.6,240.3,276.5,239.1z M282.4,259.6c-9,0-19.6,0-19.6,0
		C264.6,246.7,284.2,244.8,282.4,259.6z"/>
	<path class="st3" d="M305.8,239.1l-12.1,46.8h15.7c0,0,3.4-21.6,10.1-26.3c6.7-4.7,11.8-4.4,14.3-4.1c1.1-6.1,4.4-17.4,4.4-17.4
		c-4.4-0.8-12.1,0.9-18.4,9.2c1.2-4.2,2.2-8.2,2.2-8.2H305.8z"/>
	<path class="st0" d="M364,224.5l-3.9,14l26.4,0l-3.2,14.9l16.2,0.1c0,0,0-1.6,1-7.8c1.5-10,18.7-10.6,18.6,0.6
		c-0.1,8.3-6.5,9.2-10.6,9.4c-4.1,0.1-53.9,0-53.9,0l-4.6,13.7h28.7l-4.2,16.7h18.3l4.4-17.1c0,0,9.7-0.2,13.7-0.2
		c7.1,0,25.9-4.6,25.9-24.3c0-17.8-19.4-19.7-26.7-19.7C402.8,224.6,364,224.5,364,224.5z"/>
	<path class="st0" d="M468.7,240.3c-10.9-1.5-17.7-0.8-27.7,1.1l1.4,10.8c0,0,12.5-2.1,18.4-0.5c4.4,1.2,2.4,7.3,2.4,7.3
		s-10-3.9-21.1,0c-8.6,3-17.2,15.1-8,25.7c4.6,4.2,13.1,4.6,21.7-2.1c-0.2,1.7-1,4.7-1,4.7h16.3c0,0,7.1-24.9,7.8-28.3
		C479.8,255.8,483.6,242.3,468.7,240.3z M458.4,273.9c-2.7,3.3-6.3,3.9-8.3,2.8c-2.6-1.5-3.7-5.3-1.5-8.3c1.9-2.6,8.9-2.8,12-2.5
		C462.2,266.3,460.9,270.7,458.4,273.9z"/>
</g>
</svg>
