<?xml version="1.0" encoding="utf-8"?>
<!-- Generator: Adobe Illustrator 18.1.1, SVG Export Plug-In . SVG Version: 6.00 Build 0)  -->
<svg version="1.1" id="图层_1" xmlns="http://www.w3.org/2000/svg" xmlns:xlink="http://www.w3.org/1999/xlink" x="0px" y="0px"
	 viewBox="0 0 12 16" enable-background="new 0 0 12 16" xml:space="preserve">
<g>
	<path fill="#FFFFFF" d="M3.5,7.7c-0.1-0.1-0.3-0.1-0.4,0C3,7.8,3,8,3.1,8.1l2.7,2.7c0.1,0.1,0.1,0.1,0.2,0.1c0,0,0,0,0,0
		c0,0,0,0,0,0c0.1,0,0.2,0,0.2-0.1l2.7-2.7C9,7.9,9,7.8,8.9,7.7c-0.1-0.1-0.3-0.1-0.4,0L6.3,9.9V0.3C6.3,0.1,6.2,0,6,0
		C5.9,0,5.7,0.1,5.7,0.3v9.7L3.5,7.7z M3.5,7.7"/>
	<path fill="#FFFFFF" d="M7.9,4.3c-0.1,0-0.3,0.1-0.3,0.3c0,0.1,0.1,0.3,0.3,0.3h3.5v10.6H0.6V4.9h3.5c0.1,0,0.3-0.1,0.3-0.3
		c0-0.2-0.1-0.3-0.3-0.3H0V16H12V4.3H7.9z M7.9,4.3"/>
</g>
</svg>
