<?xml version="1.0" encoding="utf-8"?>
<!-- Generator: Adobe Illustrator 18.1.1, SVG Export Plug-In . SVG Version: 6.00 Build 0)  -->
<svg version="1.1" xmlns="http://www.w3.org/2000/svg" xmlns:xlink="http://www.w3.org/1999/xlink" x="0px" y="0px"
	 viewBox="0 0 177.9 233.1" enable-background="new 0 0 177.9 233.1" xml:space="preserve">
<g id="content">
	<g id="Layer_3">
	</g>
	<g id="Layer_4">
	</g>
	<g opacity="0.1">
		<path fill="#FFFFFF" d="M93.1,231.3l83.1-83.1c1.2-1.2,1.8-2.6,1.8-4.1c0-1.5-0.6-2.9-1.8-4.1l-8.9-8.9c-1.2-1.2-2.6-1.8-4.1-1.8
			c-1.5,0-2.9,0.6-4.1,1.8L89,201.2l-70.1-70.1c-1.2-1.2-2.6-1.8-4.1-1.8c-1.5,0-2.9,0.6-4.1,1.8L1.8,140c-1.2,1.2-1.8,2.6-1.8,4.1
			c0,1.5,0.6,2.9,1.8,4.1l83.1,83.1c1.2,1.2,2.6,1.8,4.1,1.8C90.5,233.1,91.9,232.5,93.1,231.3L93.1,231.3z M93.1,231.3"/>
		<path opacity="0.8" fill="#FFFFFF" d="M89,164.6c1.5,0,2.9-0.6,4.1-1.8l83.1-83.1c1.2-1.2,1.8-2.6,1.8-4.1c0-1.5-0.6-2.9-1.8-4.1
			l-8.9-8.9c-1.2-1.2-2.6-1.8-4.1-1.8c-1.5,0-2.9,0.6-4.1,1.8L89,132.7L18.9,62.6c-1.2-1.2-2.6-1.8-4.1-1.8c-1.5,0-2.9,0.6-4.1,1.8
			l-8.9,8.9C0.6,72.7,0,74.1,0,75.6s0.6,2.9,1.8,4.1l83.1,83.1C86.1,164,87.4,164.6,89,164.6L89,164.6z M89,164.6"/>
		<path opacity="0.6" fill="#FFFFFF" d="M89,103.8c1.5,0,2.9-0.6,4.1-1.8l83.1-83.1c1.2-1.2,1.8-2.6,1.8-4.1c0-1.5-0.6-2.9-1.8-4.1
			l-8.9-8.9c-1.2-1.2-2.6-1.8-4.1-1.8c-1.5,0-2.9,0.6-4.1,1.8L89,71.9L18.9,1.8C17.7,0.6,16.3,0,14.8,0c-1.5,0-2.9,0.6-4.1,1.8
			l-8.9,8.9C0.6,11.9,0,13.3,0,14.8s0.6,2.9,1.8,4.1L84.9,102C86.1,103.2,87.4,103.8,89,103.8L89,103.8z M89,103.8"/>
	</g>
</g>
<g id="Layer_6">
</g>
<g id="Layer_7">
</g>
<g id="Layer_5">
</g>
</svg>
