<?xml version="1.0" encoding="utf-8"?>
<!-- Generator: Adobe Illustrator 18.1.1, SVG Export Plug-In . SVG Version: 6.00 Build 0)  -->
<svg version="1.1" id="图层_1" xmlns="http://www.w3.org/2000/svg" xmlns:xlink="http://www.w3.org/1999/xlink" x="0px" y="0px"
	 viewBox="0 0 24 30" enable-background="new 0 0 24 30" xml:space="preserve">
<g>
	<g>
		<defs>
			<rect id="SVGID_1_" x="0" width="23.9" height="30"/>
		</defs>
		<clipPath id="SVGID_2_">
			<use xlink:href="#SVGID_1_"  overflow="visible"/>
		</clipPath>
		<path clip-path="url(#SVGID_2_)" fill="#285AA9" d="M12,0.1c0.3,0,0.5,0.2,0.5,0.5v29c0,0.3-0.2,0.5-0.5,0.5s-0.5-0.2-0.5-0.5v-29
			C11.6,0.3,11.8,0.1,12,0.1L12,0.1z M12,0.1"/>
		<path clip-path="url(#SVGID_2_)" fill="#285AA9" d="M12,0.1c0.1,0,0.2,0,0.3,0.1l11.5,11.5c0.2,0.2,0.2,0.5,0,0.6
			c-0.2,0.2-0.5,0.2-0.6,0L12,1.2L0.8,12.3c-0.2,0.2-0.5,0.2-0.6,0c-0.2-0.2-0.2-0.5,0-0.6L11.7,0.2C11.8,0.1,11.9,0.1,12,0.1
			L12,0.1z M12,0.1"/>
	</g>
</g>
</svg>
