<?xml version="1.0" encoding="utf-8"?>
<!-- Generator: Adobe Illustrator 18.1.1, SVG Export Plug-In . SVG Version: 6.00 Build 0)  -->
<svg version="1.1" id="图层_1" xmlns="http://www.w3.org/2000/svg" xmlns:xlink="http://www.w3.org/1999/xlink" x="0px" y="0px"
	 viewBox="0 0 231 55" enable-background="new 0 0 231 55" xml:space="preserve">
<g>
	<path fill="#FFFFFF" d="M178.4,25.6c2.8,0,5.6,0,8.5,0c2.1,0,3.4-1,3.4-3.2c0-1.8-1.1-3-2.9-3.1c-2.1-0.1-3.4,1-3.4,3.2
		c0,3.9-3,2.2-4.5,2.2c-2.4-0.1-1-2-0.7-3c0.5-1.8,0.2-2.5-1.8-2.4c-1.5,0.1-2.9,0.1-4.4,0c-0.8-0.1-2.5,0.8-2.2-1
		c0.2-1.2,0.1-3.3,2.1-3.3c6,0,12.1-0.5,18.1,0.5c2.8,0.4,4.9,1.8,5.6,4.7c0.7,3-0.3,5.6-2.5,7.6c-2.3,2.1-5.2,2.7-8.2,2.4
		c-2.4-0.2-3.6,0.6-4,3c-0.6,3.1-2.5,4-5.6,3.2c-1.8-0.5-0.6-1.7-0.5-2.5c0.8-3.7,0.8-3.6-2.9-3.6c-1,0-2.1,0.1-3.1,0
		c-0.9-0.2-2.7,0.9-2.5-1c0.2-1.4,0.1-3.5,2.7-3.4C172.6,25.7,175.5,25.7,178.4,25.6C178.4,25.6,178.4,25.6,178.4,25.6z"/>
	<path fill="#FFFFFF" d="M94.4,14.6c-1.9,7.1-3.7,13.5-5.3,20c-0.4,1.6-1.3,1.8-2.7,1.7c-1.1-0.1-2.3,0-3.7,0c0.7-2.8,1.3-5.3,2-7.9
		c-0.4-0.1-0.7-0.2-0.9-0.2c-6.3-0.2-6.4-0.2-8,5.8c-1.1,4.3-4.2,1.4-6.7,2.6c1.9-7,3.6-13.5,5.4-20c0.9-3.1,3.5-1.5,5.2-1.4
		c1.7,0.1,0.4,1.8,0.2,2.7c-0.3,1.6-0.8,3.2-1.2,4.9c0.4,0.1,0.7,0.2,0.9,0.2c6.3,0.2,6.4,0.2,8-5.8C88.9,12.9,92,15.9,94.4,14.6z"
		/>
	<path fill="#FFFFFF" d="M220.1,29.6c1.4-2.5,2.4-4.1,3.3-5.8c2.5-4.4,2.5-4.5,8.2-3.6c-4,6.2-7.8,12.3-11.8,18.2
		c-1.6,2.3-4.2,3.1-7,2.8c-1.2-0.1-3.2-0.1-2.9-1.5c0.3-1.4,0.6-4,3.5-3.2c1.8,0.5,2.2-0.6,2-2.1c-0.5-4-1.1-8.1-1.6-12.1
		c-0.1-1-0.9-2.6,1.2-2.3c1.6,0.2,4.1-1.5,4.5,1.6C219.9,23.9,219.9,26.3,220.1,29.6z"/>
	<path fill="#FFFFFF" d="M101.6,28.6c0.8-1.4,1.9-2.8,2.4-4.3c1.5-4,4-5.6,8.4-4.1c-3.9,6-7.3,12.4-11.7,18.2c-1.6,2.1-4,3-6.7,2.7
		c-1.3-0.1-3.5-0.1-3.2-1.5c0.3-1.3,0.6-4.3,3.8-3.2c1.7,0.6,2.1-0.5,1.8-2.1c-0.6-4.1-1.1-8.3-1.6-12.4c-0.2-1.2-0.4-2.5,1.4-2
		c1.5,0.4,4-1.6,4.3,1.8c0.2,2.3,0.3,4.6,0.5,6.9C101.2,28.6,101.4,28.6,101.6,28.6z"/>
	<path fill="#FFFFFF" d="M149.7,36.2c-2.3,0.5-3.1-0.1-2.2-2.6c1.2-3.6,2-7.4,3-11.1c0.6-2.3,4.6-4.1,5.8-2.4
		c1.3,1.8,1.7,0.7,2.7,0.3c0.9-0.5,2-1.1,2.9-0.5c0.7,0.6-0.2,1.5-0.3,2.3c-0.3,2.1-0.9,3.4-3.4,3.9c-3.5,0.7-4,4.2-4.7,7.1
		C152.9,35.3,152.3,37.1,149.7,36.2z"/>
	<path fill="#FFFFFF" d="M28.8,0C13.5,0,1.1,12.2,1.1,27.3c0,15.2,12.3,27.4,27.6,27.4c15.1,0,27.3-12.2,27.4-27.3
		C56.2,12.6,43.7,0,28.8,0z M42.5,32.4c-3.1,1.7-6.4,2.3-9.9,2.5c-1.8,0.1-3.1,0.6-3.8,2.5c-2.1,5.4-3.9,6.2-9.7,4.4
		c0.3-1.8,0.7-3.6,1-5.3c-0.8-2-2.5-1.4-3.9-1.5c-2.1-0.2-4.3,0.4-6.2-1.1c-0.2-2,1.2-3.6,1.3-5.5c0.4-0.5,0.9-0.5,1.4-0.4
		c6.6,0.4,13.2-0.8,19.8-0.7c3.9,0.1,5.4-1.3,5.6-4.5c-0.2-1.8-1.4-2.2-2.9-2.1c-1.5,0-2.4,1-2.8,2.4c-0.4,1.6-0.5,3.3-2.4,4
		c-1.5,0.3-3.1,0.2-4.6,0.1c-1-0.1-2.2,0-2.3-1.5c0.4-1.3,0.7-2.5,1.1-3.8c-0.8-1.6-2.3-1.5-3.8-1.5c-2-0.1-4.2,0.4-6-1
		c0-0.1,0-0.2,0-0.3c1.5-5.4,1.5-5.4,7-5.4c5.7,0,11.5-0.1,17.2,0.5c3.7,0.4,6.5,2,8.3,5.2C49.2,24.1,47.4,29.6,42.5,32.4z"/>
	<path fill="#FFFFFF" d="M129.5,25.1c-0.5-4.5-4.2-6.7-8.3-5c-0.9,0.4-1.5,0.1-2.3,0c-1.7-0.2-4.5-1.6-5.3,1.1
		c-2,6.5-3.6,13.2-5.4,19.8c5.2,0.4,5.2,0.4,7.7-6.5c4.7,3.3,9.5,2.4,12.3-2.5C129.4,29.8,129.8,27.5,129.5,25.1z M119.7,31.8
		c-1.9-0.1-2.7-1.3-2.8-2.7c0-2.6,2-4.8,4-4.8c1.9,0,2.8,1,2.9,2.9C123.9,29.7,121.9,31.9,119.7,31.8z"/>
	<path fill="#FFFFFF" d="M203.9,19.7c-0.7,0.1-1.8,0.1-2.8,0.2c-1.4,0.2-2.9,0.2-2.6,2.5c0.2,2.2,1.4,2.1,3,1.8c1-0.2,2.1-0.1,3.1,0
		c0.9,0.1,1.6,0.6,1.5,1.6c-0.1,1.4-1.1,0.9-1.9,0.7c-2.5-0.6-4.8-0.3-7,0.9c-2.3,1.3-3.2,4.3-2.3,6.5c0.9,2.1,3.5,3.2,6.1,2.2
		c1.2-0.4,2.1-0.5,3.5-0.1c3.5,1,4.6,0.2,5.5-3.3c0.4-1.4,0.7-2.8,1.1-4.2C212.9,22.2,210.9,19.6,203.9,19.7z M205.1,30.2
		c-0.3,1.6-1.5,2.7-3.2,2.8c-0.9,0.1-1.6-0.5-1.6-1.5c0.1-1.9,1.5-2.2,3-2.3C204,29.5,205.3,28.8,205.1,30.2z"/>
	<path fill="#FFFFFF" d="M144.5,20.4c-3.3-1.9-8.3-1-11.2,2.2c-3,3.2-3.5,8.2-1.3,11.3c2.1,2.9,7,3.6,10.9,1.9
		c2.2-1,2.3-1.9,0.6-3.5c-0.8-0.8-1.4-1-2.4-0.4c-1,0.6-2.1,0.9-3.3,0.4c-0.8-0.3-1.7-0.8-1.6-1.7c0.1-1.3,1.3-0.8,2-0.8
		c1.1-0.1,2.3,0,3.4,0c1.3,0,2.5,0,3.8,0c1,0,1.5-0.3,1.8-1.3C148.3,25.7,147,21.9,144.5,20.4z M142.3,26.2
		c-0.5,0.9-1.5,0.5-2.3,0.5c-1.1,0.1-2.2,0-3.4,0c0.2-1.9,1.4-2.6,2.7-3c0.9-0.3,1.9-0.1,2.5,0.7C142.3,25,142.7,25.6,142.3,26.2z"
		/>
</g>
</svg>
