<?xml version="1.0" encoding="utf-8"?>
<!-- Generator: Adobe Illustrator 18.1.1, SVG Export Plug-In . SVG Version: 6.00 Build 0)  -->
<svg version="1.1" id="图层_1" xmlns="http://www.w3.org/2000/svg" xmlns:xlink="http://www.w3.org/1999/xlink" x="0px" y="0px"
	 viewBox="0 0 232 55" enable-background="new 0 0 232 55" xml:space="preserve">
<g>
	<path fill="#307DC1" d="M177.9,25.8c2.8,0,5.6,0,8.5,0c2.1,0,3.4-1,3.4-3.2c0-1.8-1.1-3-2.9-3.1c-2.1-0.1-3.4,1-3.4,3.2
		c0,3.9-3,2.2-4.5,2.2c-2.4-0.1-1-2-0.7-3c0.5-1.8,0.2-2.5-1.8-2.4c-1.5,0.1-2.9,0.1-4.4,0c-0.8-0.1-2.5,0.8-2.2-1
		c0.2-1.2,0.1-3.3,2.1-3.3c6,0,12.1-0.5,18.1,0.5c2.8,0.4,4.9,1.8,5.6,4.7c0.7,3-0.3,5.6-2.5,7.6c-2.3,2.1-5.2,2.7-8.2,2.4
		c-2.4-0.2-3.6,0.6-4,3c-0.6,3.1-2.5,4-5.6,3.2c-1.8-0.5-0.6-1.7-0.5-2.5c0.8-3.7,0.8-3.6-2.9-3.6c-1,0-2.1,0.1-3.1,0
		c-0.9-0.2-2.7,0.9-2.5-1c0.2-1.4,0.1-3.5,2.7-3.4C172,25.9,175,25.8,177.9,25.8C177.9,25.8,177.9,25.8,177.9,25.8z"/>
	<path fill="#307DC1" d="M93.8,14.7c-1.9,7.1-3.7,13.5-5.3,20c-0.4,1.6-1.3,1.8-2.7,1.7c-1.1-0.1-2.3,0-3.7,0c0.7-2.8,1.3-5.3,2-7.9
		c-0.4-0.1-0.7-0.2-0.9-0.2c-6.3-0.2-6.4-0.2-8,5.8c-1.1,4.3-4.2,1.4-6.7,2.6c1.9-7,3.6-13.5,5.4-20c0.9-3.1,3.5-1.5,5.2-1.4
		c1.7,0.1,0.4,1.8,0.2,2.7c-0.3,1.6-0.8,3.2-1.2,4.9c0.4,0.1,0.7,0.2,0.9,0.2c6.3,0.2,6.4,0.2,8-5.8C88.3,13,91.4,16,93.8,14.7z"/>
	<path fill="#307DC1" d="M219.6,29.7c1.4-2.5,2.4-4.1,3.3-5.8c2.5-4.4,2.5-4.5,8.2-3.6c-4,6.2-7.8,12.3-11.8,18.2
		c-1.6,2.3-4.2,3.1-7,2.8c-1.2-0.1-3.2-0.1-2.9-1.5c0.3-1.4,0.6-4,3.5-3.2c1.8,0.5,2.2-0.6,2-2.1c-0.5-4-1.1-8.1-1.6-12.1
		c-0.1-1-0.9-2.6,1.2-2.3c1.6,0.2,4.1-1.5,4.5,1.6C219.3,24,219.4,26.4,219.6,29.7z"/>
	<path fill="#307DC1" d="M101.1,28.7c0.8-1.4,1.9-2.8,2.4-4.3c1.5-4,4-5.6,8.4-4.1c-3.9,6-7.3,12.4-11.7,18.2c-1.6,2.1-4,3-6.7,2.7
		c-1.3-0.1-3.5-0.1-3.2-1.5c0.3-1.3,0.6-4.3,3.8-3.2c1.7,0.6,2.1-0.5,1.8-2.1c-0.6-4.1-1.1-8.3-1.6-12.4c-0.2-1.2-0.4-2.5,1.4-2
		c1.5,0.4,4-1.6,4.3,1.8c0.2,2.3,0.3,4.6,0.5,6.9C100.6,28.7,100.9,28.7,101.1,28.7z"/>
	<path fill="#307DC1" d="M149.1,36.3c-2.3,0.5-3.1-0.1-2.2-2.6c1.2-3.6,2-7.4,3-11.1c0.6-2.3,4.6-4.1,5.8-2.4
		c1.3,1.8,1.7,0.7,2.7,0.3c0.9-0.5,2-1.1,2.9-0.5c0.7,0.6-0.2,1.5-0.3,2.3c-0.3,2.1-0.9,3.4-3.4,3.9c-3.5,0.7-4,4.2-4.7,7.1
		C152.3,35.5,151.8,37.2,149.1,36.3z"/>
	<path fill="#307DC1" d="M28.3,0.1C13,0.1,0.6,12.3,0.6,27.5c0,15.2,12.3,27.4,27.6,27.4c15.1,0,27.3-12.2,27.4-27.3
		C55.7,12.7,43.2,0.1,28.3,0.1z M42,32.5c-3.1,1.7-6.4,2.3-9.9,2.5c-1.8,0.1-3.1,0.6-3.8,2.5c-2.1,5.4-3.9,6.2-9.7,4.4
		c0.3-1.8,0.7-3.6,1-5.3c-0.8-2-2.5-1.4-3.9-1.5c-2.1-0.2-4.3,0.4-6.2-1.1c-0.2-2,1.2-3.6,1.3-5.5C11,28,11.5,28,12,28.1
		c6.6,0.4,13.2-0.8,19.8-0.7c3.9,0.1,5.4-1.3,5.6-4.5c-0.2-1.8-1.4-2.2-2.9-2.1c-1.5,0-2.4,1-2.8,2.4c-0.4,1.6-0.5,3.3-2.4,4
		c-1.5,0.3-3.1,0.2-4.6,0.1c-1-0.1-2.2,0-2.3-1.5c0.4-1.3,0.7-2.5,1.1-3.8c-0.8-1.6-2.3-1.5-3.8-1.5c-2-0.1-4.2,0.4-6-1
		c0-0.1,0-0.2,0-0.3c1.5-5.4,1.5-5.4,7-5.4c5.7,0,11.5-0.1,17.2,0.5c3.7,0.4,6.5,2,8.3,5.2C48.7,24.2,46.9,29.7,42,32.5z"/>
	<path fill="#307DC1" d="M129,25.2c-0.5-4.5-4.2-6.7-8.3-5c-0.9,0.4-1.5,0.1-2.3,0c-1.7-0.2-4.5-1.6-5.3,1.1
		c-2,6.5-3.6,13.2-5.4,19.8c5.2,0.4,5.2,0.4,7.7-6.5c4.7,3.3,9.5,2.4,12.3-2.5C128.9,30,129.2,27.6,129,25.2z M119.2,31.9
		c-1.9-0.1-2.7-1.3-2.8-2.7c0-2.6,2-4.8,4-4.8c1.9,0,2.8,1,2.9,2.9C123.3,29.8,121.3,32.1,119.2,31.9z"/>
	<path fill="#307DC1" d="M203.4,19.8c-0.7,0.1-1.8,0.1-2.8,0.2c-1.4,0.2-2.9,0.2-2.6,2.5c0.2,2.2,1.4,2.1,3,1.8c1-0.2,2.1-0.1,3.1,0
		c0.9,0.1,1.6,0.6,1.5,1.6c-0.1,1.4-1.1,0.9-1.9,0.7c-2.5-0.6-4.8-0.3-7,0.9c-2.3,1.3-3.2,4.3-2.3,6.5c0.9,2.1,3.5,3.2,6.1,2.2
		c1.2-0.4,2.1-0.5,3.5-0.1c3.5,1,4.6,0.2,5.5-3.3c0.4-1.4,0.7-2.8,1.1-4.2C212.4,22.3,210.4,19.7,203.4,19.8z M204.6,30.3
		c-0.3,1.6-1.5,2.7-3.2,2.8c-0.9,0.1-1.6-0.5-1.6-1.5c0.1-1.9,1.5-2.2,3-2.3C203.4,29.6,204.8,28.9,204.6,30.3z"/>
	<path fill="#307DC1" d="M144,20.6c-3.3-1.9-8.3-1-11.2,2.2c-3,3.2-3.5,8.2-1.3,11.3c2.1,2.9,7,3.6,10.9,1.9c2.2-1,2.3-1.9,0.6-3.5
		c-0.8-0.8-1.4-1-2.4-0.4c-1,0.6-2.1,0.9-3.3,0.4c-0.8-0.3-1.7-0.8-1.6-1.7c0.1-1.3,1.3-0.8,2-0.8c1.1-0.1,2.3,0,3.4,0
		c1.3,0,2.5,0,3.8,0c1,0,1.5-0.3,1.8-1.3C147.7,25.8,146.5,22,144,20.6z M141.8,26.4c-0.5,0.9-1.5,0.5-2.3,0.5c-1.1,0.1-2.2,0-3.4,0
		c0.2-1.9,1.4-2.6,2.7-3c0.9-0.3,1.9-0.1,2.5,0.7C141.8,25.1,142.1,25.7,141.8,26.4z"/>
</g>
</svg>
