<?xml version="1.0" encoding="utf-8"?>
<!-- Generator: Adobe Illustrator 18.1.1, SVG Export Plug-In . SVG Version: 6.00 Build 0)  -->
<svg version="1.1" id="图层_1" xmlns="http://www.w3.org/2000/svg" xmlns:xlink="http://www.w3.org/1999/xlink" x="0px" y="0px"
	 viewBox="0 0 370 279" enable-background="new 0 0 370 279" xml:space="preserve">
<g opacity="5.000000e-002">
	<path fill="#EAF1FA" d="M200.1,180.9c0,0.1-0.5,0.7-0.2,1.1s0.2,0.6,0.8,1.1c0.6,0.4,1.7,1.2,1.7,1.2l1.6,1.4c0,0,0.9,1.4,1.2,2
		c0.3,0.6,1.4,2.1,1.4,2.1l1,1.9l1.5,2.1l1.1,0.8c0,0,1.7,2.5,2.4,3.3c0.7,0.8,1.9,1.9,1.9,1.9s0.7,0.5,1.4,0.7
		c0.7,0.2,1.6,0.2,1.6,0.2l1-1.1c0,0,0-1,0-1.6c0-0.6,0-1.8,0-1.8l-1.3-1.6l-2.1-1.8c0,0-0.6-1.2-1.4-2c-0.9-0.9,0.3,0-1.7-1.8
		c-2.1-1.8-2.8-2.1-2.8-2.1l-1.4-1.2l-1.2-1.4c0,0-1.4-1-1.8-1.3c-0.4-0.3-2.1-1.3-2.1-1.3l-1.2-0.8H200.1z"/>
	<path fill="#EAF1FA" d="M217.6,193.5c0,0,1,0,1.1,0c0.1,0,0.8,1,0.8,1s0.6,0.7,0.7,0.8c0,0.2,0,0.5,0,0.5s-1.1-0.3-1.3-0.4
		c-0.2-0.1-0.4-0.7-0.4-0.7l-0.6-0.7L217.6,193.5z"/>
	<polygon fill="#EAF1FA" points="221.4,195.4 222.4,195.2 222.7,195.4 222.4,196.1 221.9,195.8 221.4,195.6 	"/>
	<path fill="#EAF1FA" d="M218.1,202.5l1.8,0.7l2.2,1.2h1h1.1l1.5,0.2l2.8,0.2l1.3,0l1.6,0.5l1.8,0.1l2.3,0.1c0,0,0.3,0.2,0.5,0.2
		c0.1,0,1.5,0.3,1.5,0.3l0.8,0h1.5l0.6-0.5c0,0,1-0.1,0.7-0.3c-0.3-0.2-1.3-0.5-1.3-0.5l-1.4,0.2c0,0-1,0.1-1.2,0.1
		c-0.1,0-2.2-1-2.5-0.9c-0.3,0.1-1.4,0-1.4,0l-1-0.6l-0.7-0.4l-0.2-0.9l-1.8-0.4c0,0-1,0-1.5,0.1c-0.5,0-1.8,0.6-1.8,0.6l-1,0.1
		l-1.8,0l-0.3-0.4l-1.5-1C221.7,201.4,218.4,199.1,218.1,202.5z"/>
	<path fill="#EAF1FA" d="M224.8,186.9c0,0-1.4,2.3-1.1,2.9c0.3,0.6,0.9,1.4,1.1,1.8c0.2,0.4,1,2.1,1.1,2.3c0,0.3-0.2,0.8,0,1
		c0.2,0.2,0.8,0.8,0.8,0.8l1.6,0.3h1.8l1.4,0.6c0,0,1.2-0.1,1.4,0s0.3,0.1,0.8,0.7c0.6,0.6,0.6,0.6,0.6,0.6l0.8-0.4l0.8-0.2
		c0,0,0.9,0.3,0.9-1c0-1.3,0-1.3,0-1.3l0-1.2l0.6-1.2l0.7-0.7l0.7-0.7v-1.6l0.5-0.2c0,0,0.1,0.5,0.9-0.3c0.8-0.8,0.7-0.2,0.8-0.8
		c0.1-0.6,0.2-0.8-1-1.8c-1.2-1-1.5-0.7-1.6-1.4c-0.1-0.7-0.1-1.3-0.1-1.3s0.2-0.3,0.9-0.8c0.7-0.5,0.9-0.9,0.9-0.9s0.2,0.6,0.5-0.3
		c0.3-0.8,0.3-1.1,0.3-1.1l-1.2-1l-1.3-1.6l-1.2,0.3l-0.7,1.1c0,0-0.4,0.7-0.7,1.2c-0.3,0.5-1.1,0.8-1.1,0.8l-1.4,0.6l-1,1.2
		l-1.1,1.1l-0.7,0.5l-0.7,0.2l-0.9,0.5l-1.6,0.7l-0.1,0.8C227.3,187.2,225,186.7,224.8,186.9z"/>
	<path fill="#EAF1FA" d="M245.6,144.4l-1.4,2.2l-0.6,0.7c0,0-0.2,1.9-0.2,2.2c0,0.3,0.7,1.4,0.7,1.4s1.1,0.5,1.5,0.1
		c0.4-0.4,0.4,0.1,0.6-1c0.2-1.1-0.6-1.1,0.3-1.9c0.9-0.9,1.2-1.2,1.2-1.2v-1.6l-1.3-2.1C246.4,143.3,245,143.5,245.6,144.4z"/>
	<path fill="#EAF1FA" d="M227.4,155.4c0.4,1-0.9,1.4-0.9,1.4l-0.6,0.9l-0.6,0.6c0,0-1.6,0.1-1.8,0s0-2.1,0-2.1s0.9-0.5,1.6-0.7
		C225.9,155.1,227.1,154.6,227.4,155.4z"/>
	<path fill="#EAF1FA" d="M244.8,157.2c-0.3,0.2-0.8,2.6-0.8,3c0,0.4-0.7,1.2-0.7,1.6c0.1,0.4-0.2,1.1,0,1.7c0.2,0.6,0.7,2.7,1,3
		c0.2,0.3-0.7,0.7,0.5,1.4c1.2,0.7,1.6,0,1.6,0l0.4-1.4c0,0,0.6-0.2,0.9-0.1c0.4,0.1,0.8,0.7,0.8,0.7l1,0.8l1.2,0.6l0.3,0.8
		c0,0-0.6,2.2-0.8,2.4c-0.2,0.2-0.7,0-0.7,0s-0.7,0.3-1.1-0.6c-0.4-0.9-0.8-1.4-0.8-1.4s-1,2.4-0.5,3c0.5,0.6,1.7,1.2,1.7,1.2
		l0.4,0.2c0,0,0.1,0.8,1.7-0.5c1.7-1.3,1.7-1.3,1.7-1.3s1.1,0.1,1.1-1.3c-0.1-1.4-1.2-3-1.2-3l-2.2-1.6c0,0,0.1,0-0.6-0.7
		c-0.7-0.7-1.4-0.9-2.1-0.9s-0.7,0-0.7,0s-1.7-1.4-1.1-2.2s1.6-1.6,1.7-3.4S246.8,155.8,244.8,157.2z"/>
	<path fill="#EAF1FA" d="M253.2,173.6c0,0-1.2,1.3-1.2,1.4c0,0.1,0.1-0.1,0,0.1c-0.2,0.2-1.1,0.4-1.2,0.6c-0.1,0.2-0.3,0.2-0.7,0
		c-0.4-0.2-0.7-0.4-0.7-0.4l-0.8,0.5l-1.2,0.5l-0.8,1.7c0,0,0,0.6,0,0.7c0,0.1,1,0,1,0s0.4-0.7,0.4-1.1c0-0.4-0.2-0.7,0.2-0.7
		c0.4,0,0.3-0.2,0.8,0c0.4,0.2,0.9,0,1.2,0.3c0.3,0.3,0.1,1.4,0.2,1.6c0.2,0.1,0.3,0.2,0.7,0.5c0.4,0.3,0.3,0.3,0.6,0.7
		c0.3,0.3,0.3,0.3,0.7,0.3c0.3,0,1.2-0.5,1.1-0.7c-0.2-0.2-0.8-1-0.5-1.3c0.3-0.3,0.6-0.7,0.6-0.7s0.2,0.6,0.4,1.1
		c0.2,0.4,0,1,0.7-0.1c0.6-1.1,0.7-0.1,0.6-1.1c-0.1-1-0.4-1.7-0.4-1.7s-0.4-1.7-0.6-1.9C254.1,173.9,254,173.5,253.2,173.6z"/>
	<path fill="#EAF1FA" d="M242.3,170.9c0,0.4-0.5,1.4-0.5,1.4l-0.6,0.7c0,0-1.2,0.5-1.2,0.6c-0.1,0.1-1.6,0.6-1.6,0.9
		c0,0.3-0.4,0.5,0,0.8c0.4,0.3,0.4,0.5,0.9,0.2c0.5-0.3,0.2-0.7,1-1.2c0.8-0.4,1.3-0.8,1.3-0.8l0.7-1l0.4-0.8L242.3,170.9z"/>
	<path fill="#EAF1FA" d="M252.9,188c0,0-0.5,0.6-0.8,1.1c-0.4,0.5-1.8,1-1.8,1s-0.4,0.2-1.8-0.1c-1.4-0.3-2.6-0.4-2.6-0.4
		s-1,0.2-1.1,0.4c-0.2,0.2-1.3,0.9-1.3,0.9s0,0.6,0.2,0.8c0.2,0.2,0.5,0.5,0.6,0.6c0.1,0.1,0.6,0.5,1,0.5c0.4,0,1.2-0.6,1.2-0.6
		l1.1-0.5c0,0,1.9-0.6,2.2,0.2c0.2,0.8-0.1,1.3-0.1,1.3s-0.7-0.1-1.1-0.1s-1.9,0.1-1.9,0.1l-0.4,0.9l0.3,1l1,0.9
		c0,0,0.5,0.1,0.8,0.8c0.2,0.7,0.5,1.3,0.5,1.3l0.3,1.2c0,0-0.3,0.8-0.6,0.9c-0.3,0.1-0.4,0.4-1.1,0.1c-0.7-0.3-0.9,0.1-1-0.8
		c-0.1-0.8-0.3-1.7-0.3-1.7s-0.2-1-0.4-1.4c-0.2-0.3-0.6-0.8-0.6-0.8l-1.4,0.4l0,1.5l0.2,1.7c0,0,1.6,0.4,0.1,0.9
		c-1.6,0.5-2.2,1.1-1.8,0.2c0.3-0.9,0.8-2,0.8-2s0.2-1.2-0.2-1.6c-0.4-0.3-1-0.1-1-0.7c0-0.6-0.9,0.4,0-1.2c0.9-1.6,0.7-0.8,1.1-1.8
		c0.4-1-0.1-1.7,0.2-2.6c0.2-0.9,0.5-1.8,0.9-2c0.3-0.2,1.2-0.4,1.9-0.2c0.7,0.2,0.7,0.5,1.5,0.5c0.7,0,1.2,0,1.2,0l1.6-0.1
		c0,0,1-0.4,1.3-0.7c0.3-0.3,0.9-0.5,0.9-0.5s0.9-0.2,0.9,0.3S252.9,188,252.9,188z"/>
	<path fill="#EAF1FA" d="M241.1,207.5c0.2-0.1,0.7-0.6,1.5-0.4s1.2,0.1,1.5,0.4c0.2,0.3,0.7,0.7,0.8,0.9c0.1,0.2,0,0.4,0,0.4
		l-0.7,0.1l-0.6-0.5l-0.9-0.3L241.1,207.5z"/>
	<path fill="#EAF1FA" d="M243.5,205c0.9-0.2,2-0.2,2-0.2l2.2,0.7l-0.3,0.7l-1.4,0.2h-1.9l-0.7-0.2L243.5,205z"/>
	<path fill="#EAF1FA" d="M249.4,205.9c0.2,0.3,1.7-0.2,2.2-0.2c0.5-0.1,1.5,0,1.5,0l-1.6,0.8c0,0-1.6,0.9-1.6,1
		c0,0.1-0.9,1.1-0.9,1.1s-0.3,0.1,0.5,0.3c0.9,0.2,1.6-0.1,2.1-0.6c0.6-0.4,0.2-0.7,1.5-1c1.2-0.3,1.7-0.8,1.7-0.8s0.7-0.2,0.7-0.7
		c0-0.5,0-1.6,0-1.6s-1.2-0.3-1.7-0.2c-0.5,0.2-1.2,0.6-1.2,0.6l-0.6,0.2l-2.1,0.2C250,205.1,248.9,205.1,249.4,205.9z"/>
	<path fill="#EAF1FA" d="M257.4,197c0,0-0.2-0.5,1.6-0.2c1.8,0.3,2.8,0.2,2.8,0.2s2,0,1.4-0.6s-2.3-1.1-2.3-1.1h-2.6l-1.4,1.1
		C256.7,196.4,256.9,196.7,257.4,197z"/>
	<path fill="#EAF1FA" d="M254.7,196c0.6,0.1,1.4,0.2,1.4,0.7c0,0.5,1,0.7-0.2,0.7c-1.2,0-2.5-0.3-2.5-0.3S251.5,195.3,254.7,196z"/>
	<path fill="#EAF1FA" d="M257.1,186.7l-1,1.9l0.5,2.3c0,0-0.7,1-0.2,1.7c0.6,0.7,1.4,1,1.3,0.2c-0.1-0.8-0.7-1.8,0-2.5
		c0.7-0.7,0.6-0.7,1-1.7C259.2,187.7,258.1,184.8,257.1,186.7z"/>
	<path fill="#EAF1FA" d="M265.3,191.2c0,0-3.2,0.1-2.6,1.5c0.6,1.4,0,1.7,2,1.7c2,0,2.7-0.1,2.8,0.2c0.2,0.4-0.9,0.7-1.5,0.9
		c-0.7,0.3-0.8,0.9-0.6,1c0.2,0.2-0.1,1,1.2,0.8c1.3-0.2,1.3-0.4,1.6-0.3s0.7,0.7,0.9,0.8c0.2,0.2-0.7-0.2,0.4,0.3
		c1.1,0.5,1.7-0.2,3.3,0.6c1.6,0.7,2.1,1.2,2.6,1.8c0.4,0.6,1,1.7,1,1.7l0.1,1.2c0,0-0.8,0.2-1.4,0.8c-0.5,0.7-0.6,0.9-0.3,1
		c0.3,0.1,0.9-0.1,1.6-0.2c0.7,0,3,0.5,3.7,1.3c0.7,0.8,2.4,1,3,1s1.1-0.6,1.7-1.6c0.6-1.1-0.7-1.8,1.2-1.6c1.9,0.2,2.3,0.7,2.9,1.2
		c0.6,0.5,1.1,0.5,1.1,1.1c0,0.6-1,1.8,0.8,2.4c1.8,0.6,2.4,0.7,3.6,0.7c1.2,0,1.9,0,1.9,0s1.7,0.5,0-1.2c-1.7-1.7-2.7-2.6-3-2.9
		c-0.3-0.3-1.9-1.6-1.9-1.6l-0.6-1.2c0,0,1.7-0.1,1.7-0.7c0-0.6-2.6-1.6-3.5-2.2c-1-0.6-1.6-1.8-1.6-1.8s-1.7-1.4-3.5-2.3
		c-1.8-0.9-3.4-1.5-4.6-1.7c-1.3-0.2-3.2-0.2-3.2-0.2s-1.1-0.7-2.1-0.4c-1,0.3-2.3,0.9-2.4,1.2c-0.1,0.3,0,1-0.6,1.3
		c-0.7,0.3-1.6,0.6-2,0c-0.4-0.7-0.4-1.2-0.3-2s-0.5-1.9-0.5-1.9S266.1,190.8,265.3,191.2z"/>
	<path fill="#EAF1FA" d="M294.3,201.2c0,0,1.2,0.7,2.6,0.4c1.4-0.3,3-0.6,3.4-1.2c0.3-0.5,0.9-0.9,1.3-1.7c0.4-0.8-1.2-2.9-2.9-3.4
		c-1.7-0.5,0.7,1,1.3,1.9c0.6,0.9,0.4,1.7,0.3,1.8c-0.1,0.1-2.8,0.5-2.8,0.5l-1.8,0.4C295.6,199.8,293.2,199.2,294.3,201.2z"/>
	<path fill="#EAF1FA" d="M282.3,209.6c0,0-0.6,0.8-0.6,1.5c0,0.7-0.2,1.4-0.1,2c0.1,0.5,0.7,1.9,0.7,2c0,0.1-0.5,1.7-0.3,2
		c0.2,0.3-0.7,1.7-0.7,1.7l-1.5,1.9c0,0,0.4,0.4-1.1,0.4c-1.5,0-2.3,0-3.2-0.8c-0.9-0.7-1.1-1.1-1.8-1.5c-0.7-0.4-0.9-0.4-1.8-0.9
		c-0.9-0.5-1.4-0.1-1.2-1.3c0.3-1.2,0.6-1.9,1.1-2.7c0.5-0.8,0.6-1.1,0.4-1.4c-0.2-0.3-2.5-1.3-3.1-1.4c-0.7-0.1-1.4-0.7-2-0.8
		c-0.6-0.1-0.6-0.7-2-0.4c-1.4,0.4-4.5,0.9-4.7,2.1c-0.2,1.2-0.3,2.7-0.3,2.7l0.3,1.4l-1.2,0.6l-2-1.4c0,0-2-0.2-2.1-0.2
		c-0.1,0-2.9,1.5-3.5,2.3c-0.5,0.8-1.1,1.9-1.1,1.9l-0.7,1.2c0,0-0.4,0.2-0.8,0.2c-0.4,0-1-0.3-1-0.3s-1.1,0.5-1.2,0.9
		c-0.1,0.5-0.7,1.4-0.7,1.7c0,0.3-0.7,1.2-0.7,1.2s-1.5,1.7-2.2,2c-0.7,0.3-1,0.4-2.3,0.7c-1.3,0.3-4.4,1.1-5,1.5s-2.5,1.4-2.5,1.4
		s-1.9,3.4-1.8,4.2c0.1,0.8,0.6,2.4,0.6,2.4s0.6,0.7,0.6,1.1c0,0.3-0.8,0.6-0.8,0.6l-0.4,0.9l0.7,1l0.5,0.9c0,0,1.4,2.1,1.5,2.9
		c0.1,0.9,0.1,1.4,0.1,2.4c0,1,0.5,2.4,0.7,3.2c0.3,0.8,0.2,2.2,0.2,2.2s-1.1,0.4-1.2,0.9c0,0.5,0.5,1.7,0.5,1.7s0,0.3,1.2,0.6
		c1.2,0.4,0.8,0.9,2.5,0.4c1.7-0.6,2.6-1,2.6-1l1.4-1.4c0,0,1-0.5,2-0.5c1,0,1.8,0.1,2.1,0.1s2.2,0.2,2.7,0c0.5-0.2,0.8-0.6,1.2-1.2
		c0.4-0.6-0.3-0.2,1.4-0.9c1.6-0.7,0.8-0.5,2.1-1.1c1.4-0.6,2.4-0.8,3.5-1.1c1.1-0.2,2.3-0.5,4.9-0.5c2.6,0,3.5,0,3.5,0l1.8,1.4
		l1.1,2.1c0,0,0.9,2.3,1,2.4c0.1,0.1,1.7,0.6,1.7,0.6s1.5-0.8,2-1.7c0.5-0.8,1.3-2.2,1.3-2.2l0.5,2.3l-0.9,1.6l-0.2,0.8
		c0,0,3.1,0.6,3.4,1c0.3,0.4,0.1,1.2,0.7,2.7c0.6,1.4,1.4,2.4,1.4,2.4s2,1.1,3,1.3s2.3-0.4,2.3-0.4s0.6-1.5,1.8-1.4
		c1.3,0.1,2,0.9,2,0.9s0.7,1.5,1.4,1.2c0.7-0.3,1-0.7,2.2-1.3c1.2-0.7,1.5-0.8,1.5-0.8s2.3,1.5,2.7-0.1c0.3-1.6-0.2-2.4,0.7-4.2
		c0.9-1.8,1-1.8,2.3-3.5c1.3-1.7,2-1.9,2.3-4.2c0.3-2.4,0.6-3.6,0.6-3.6s0.7-4.2,0.4-6.3s-1.3-3.3-1.3-3.3l-2.7-3
		c0,0-1.2,0.2-2.1-1.4c-0.9-1.6-0.7-2.1-2.2-3.5c-1.4-1.3-2.8-2-2.8-2s-2.6-2-2.6-3c0-1-1.2-3.2-1.2-4.3c0-1.1,0.8-0.7,0-1.4
		c-0.8-0.7-1.4-0.4-2-1.3c-0.6-0.9-0.6,0.6-0.8-0.3c-0.3-0.9-0.4-3-0.8-3.9C283.9,210.4,284,208.5,282.3,209.6z"/>
	<path fill="#EAF1FA" d="M287.2,267.1c0,0-0.1,1.9,0.2,2.2c0.3,0.3,1.4,1,1.8,1.8c0.4,0.7-1.2,1.7,1,1.7s3-1.4,3-1.4
		s1.1-1.6,1.1-2.7c0-1,0.6-1.8-0.5-1.9c-1,0-3.1,0.4-3.1,0.4l-0.8,0.2l-1.4-0.7C288.7,266.8,287.2,266.6,287.2,267.1z"/>
	<path fill="#EAF1FA" d="M339.2,269.7l-1.8,3c0,0-0.5,0.2-1.5,0.6c-1,0.4-1.8,1.1-1.8,1.1l-0.7,2.8l-1.7,1.3h-3l-2.3-1
		c0,0-0.9-1.8,0.6-2.7c1.5-0.9,1.5-1,3.8-2.1c2.3-1.1,1.5-0.5,2.3-1.1c0.8-0.6,1.4-1.2,1.9-2.6c0.5-1.4,0.6-1.9,0.6-1.9l1.5-0.4
		l2.1,0.9C339.2,267.6,340.1,268.1,339.2,269.7z"/>
	<path fill="#EAF1FA" d="M337,254.3c0,0,0.2,2.1,0.9,2.9c0.6,0.7,1.4,2.3,1.7,2.7c0.4,0.4,0.6,1.7,0.6,1.7l-0.9,1.6
		c0,0-0.9,0.4-0.7,0.8s1,0.9,1,0.9s0.8-0.1,1.2,0.4c0.4,0.4,0.3,1,0.3,1l-1.1,0.6l0.7,1.9h0.8c0,0,1.4-0.6,1.8-1.9
		c0.4-1.3,0.6-2.1,0.6-2.1s-0.9-0.3,0-0.7c0.9-0.4,1-0.3,1.6-0.8c0.6-0.5,1.3-1.2,1.3-1.2s0.6-1.7,0.3-2c-0.2-0.2-3,0.6-3,0.6
		l-0.2,0.3l-0.7-0.1l-1.2-2.4l-0.8-1.8l-1.7-1.1C339.6,255.4,337.1,252.8,337,254.3z"/>
	<path fill="#EAF1FA" d="M118.8,212.6c0,0,0.5,3.6,0.6,4.5c0.1,0.9,0.4,0.9,0,2.1c-0.4,1.1-1.3,1.9-1.7,3.2
		c-0.4,1.3-1.2,4.2-1.2,4.2s-0.5,3.2-0.6,4.4c-0.1,1.1-0.2,2.4-0.5,2.9c-0.2,0.5-2,2.3-2,2.3s-2.9,0.1-3.7,0
		c-0.9-0.1-1.7-0.1-1.7-1.9c0-1.7-0.1-3.2,0-5c0.1-1.8,0.6-2.3,1-2.9c0.4-0.6,0.1-1.9,0.1-1.9l-1.1-2.6l1.5-2.8l4.7-1.9l1.4-1.4
		c0,0,0.6-2.6,0.9-3C116.9,212.2,118.6,211.3,118.8,212.6z"/>
	<path fill="#EAF1FA" d="M172.6,173c0,0-1.4,5.1-0.5,6.8c0.9,1.6,4.1,0.4,4.2-1.5C176.4,176.2,174,173.8,172.6,173z"/>
	<path fill="#EAF1FA" d="M264.2,131c0,0-0.7,0.7-0.7,1.2c0,0.5-0.3,1.1-0.3,1.1l-0.5,0.3l-1-0.4l-0.2-1.8l0.4-0.5l-0.4-0.7h-0.9
		v-1.1l0.8-0.8h1c0,0,0.6-0.3,1-0.8c0.4-0.6,0.8-1.3,0.8-1.3l1-0.8c0,0,0.7-0.4,1.3-0.5c0.7-0.1,0.7,0.1,1.7,0
		c1.1-0.1,0.6,0.1,1.6,0c1-0.1,0,0.3,1-0.1c1.1-0.4,1.7-0.9,1.7-0.9s0.2-1.4,1-1.8c0.7-0.3,2.8-0.4,3.9-2.3c1.2-1.9,1.5-2.5,1.6-3.2
		c0-0.7,0-1.3,0-2c0-0.7,0-1.7,0-1.7l-0.8-1.4l0.2-1.7l2.1-0.7c0,0,0.7-2.3,1.2-3.7s0.6-2.9,0.6-2.9s-0.8-5.6-0.7-6.4
		c0.1-0.9,0.7-2.1,0.7-2.1V91l-0.7-2.5l0.1-2.8c0,0,1.1-1.3,1.5-1.3c0.4,0,0.6-0.4,0.9,0.5c0.3,0.9,0.2,0.9,0.3,2.1
		c0,1.2,0.1,2.4,0.3,2.9c0.2,0.5,0.4,1.2,0.6,1.8c0.2,0.7,0.3,1,0.5,1.4c0.1,0.4,0,0.4,0.4,1c0.4,0.7,0.9,1.4,0.9,1.4s0.3,0.3,0,0.4
		c-0.3,0.1-1.2,0-1.2,0s0.5-0.6-0.8-0.3c-1.3,0.3-0.8-0.7-1.3,0.3c-0.5,1-0.7,1.9-0.7,1.9s0.2,0,0.3,0.6c0,0.5,0.9,2.1,0.9,2.1
		l0.5,0.6l0.5,0.8l-0.6,0.6l-1.4-0.4v0.6c0,0,0,0.2,0,0.7c0,0.5-0.1,1.3-0.1,1.3s0.2,0.4,0.3,0.7c0.1,0.2,0.8,1.2,0.8,1.2
		s-0.1,0,0.8,0.4c0.9,0.4,1.4,1.8,2.9,0.9c1.5-0.9,1.5-1,1.9-1s0.9,1.3,0.9,1.3s-0.3,1.3-1.5,1.5c-1.2,0.3-2.6,0.3-2.6,0.3l-0.9,0.5
		c0,0-0.1,0.1-0.4,0.5c-0.3,0.4-0.8,0.9-0.8,0.9l-0.6,0.2l-1.2-1.2l-1.1-0.4l-0.7,0c0,0-1.4,0.1-1.4,0.3c0,0.2-0.1,0.2,0,0.7
		c0,0.5,0.7,1.2,0.8,1.3c0.1,0.1,0.8,0.7,0.8,0.7s0.6,0.7,0.7,1.2c0.1,0.5,0.3,1.4,0.3,1.4s0.3,0.5,0,1.3c-0.3,0.8-0.2,0.7-0.4,1.1
		c-0.2,0.4-1.4,1.5-1.4,1.5l-0.4,1.4c0,0-0.4,1.2-0.4,2.3c0,1.1-0.8,2.2-0.8,2.2s-1-0.6-2.1,0c-1,0.6-1.2,0.8-2,0.6
		c-0.8-0.3-0.7-0.4-1.1-0.4c-0.4,0-1.4,0.8-1.4,0.8s-1.9,0.5-2.4,1c-0.6,0.5-1.9,1.5-1.9,1.5l-1.3,0.7c0,0-1.7,0.9-0.7-0.6
		c0.9-1.5,1.3-1.8,1.3-1.8l1.1-0.6c0,0,0.6-0.1,1.4-0.3c0.8-0.2,1.3-0.4,1.3-0.4s0.2-0.1-0.4-0.1c-0.6,0-1.1,0.1-1.1,0.1l-1.1,0.5
		c0,0-1.4,0.4-1.8,0.4c-0.4,0-1.3,0.3-1.3,0.3l-0.2,0.5c0,0-1,0.1-1.3,0.2c-0.3,0.1-0.5,0-0.7,0.4c-0.2,0.4,0.5,0.5,0.7,0.7
		c0.2,0.1-0.1-0.1,0.2,0.1C264.4,130,264.2,131,264.2,131z"/>
	<path fill="#EAF1FA" d="M321.1,227.5c0,0,0.7,1.3,1.2,1.6c0.5,0.3,0.8,0.3,1.9,1.1c1,0.8,1.4,1.2,1.4,1.2l2.2-0.6l-3-2.1
		c0,0-0.9-0.7-1.7-1.2c-0.8-0.5-1.1-0.7-1.1-0.7L321.1,227.5z"/>
	<path fill="#EAF1FA" d="M347.3,221c0,0,1-0.4,1.1-0.4c0.1,0,0.6,0,0.6,0s0.7-0.4,0.8-0.6c0.2-0.2,0.4-0.9-0.3-0.9
		c-0.7-0.1-1.6-0.3-1.9,0c-0.3,0.3-0.5,0.7-0.5,0.7l-0.3,0.8v0.3H347.3z"/>
	<path fill="#EAF1FA" d="M304.5,200.4c0,0.2,0,1,0.5,1.4c0.5,0.4,0.7,0.2,1,0.9c0.3,0.6,0.5,0.9,0.7,1.4c0.2,0.5,0.7,1,0.7,1
		s1.5,0.2,2.1,0.6c0.7,0.4,0.3,0.6,0.7,0.4c0.4-0.2,0.9-0.3,0.3-0.7c-0.7-0.3-1.3-0.6-1.3-0.6l-0.9-0.2c0,0,0,0.2-0.4-0.5
		c-0.4-0.7-0.1-0.7-0.6-1.2c-0.6-0.5-0.9-0.7-0.9-0.7s-0.4,0.3-0.7-0.5c-0.3-0.7-0.4-0.9-0.4-0.9L304.5,200.4z"/>
	<path fill="#EAF1FA" d="M311.7,203.9c1.3,0,1.2-0.4,1.6,0c0.4,0.4,0.8,1.1,0.8,1.1l0.2,0.5c0,0,0.7,0.4,0,0.2s-1.1-0.7-1.1-0.7
		l-1.6-0.7L311.7,203.9z"/>
	<path fill="#EAF1FA" d="M269.7,200.4c0,0,0,1.4,0,1.9c0,0.4-0.3,0.6-0.6,0.6c-0.3,0-1.2,0.4-1.1-0.6
		C268.2,201.3,268.8,199.6,269.7,200.4z"/>
	<path fill="#EAF1FA" d="M152.2,18.3c0,0-2.4,1.7-4.5,2.6c-2.1,0.9-3.5,0.9-4.4,1.2c-0.8,0.3-3.2,0.8-4.2,1.7
		c-1,0.8-3.9,2.7-3.9,2.7s-0.4,0.4-0.9,1.5c-0.6,1.1-2.4,2.3-2.6,2.6c-0.2,0.3-1.7,0.7-1.9,0.9c-0.2,0.3-0.6,1-0.6,1l-0.7,2.1
		l0.7,1.2c0,0,1.4,1.2,1.8,1.3c0.4,0.1,1.5,0.7,2.1,1c0.7,0.4,2,0.2,0.7,0.4c-1.3,0.2-2,0-2,0s-3.3,0.2-3.4,0.1
		c-0.1-0.1-1.1,0.5-1.5,0c-0.4-0.5-0.1-0.1-0.9-1c-0.8-0.9-0.8-0.9-0.8-0.9l0,0c0,0-1.1-1-1.9-1.5c-0.7-0.5-1.5,1.7-0.7-0.5
		c0.7-2.1-0.1-2.1,1.4-2.9c1.5-0.7,1.7-1.1,2.3-1.5c0.7-0.4,1-2.4,1-2.4s0.7-1.1,1.3-1.5c0.6-0.4,1.7-1,1.7-1l1.4-2.3
		c0,0,0.9-0.7,2.1-1.3s1.8-0.7,1.8-0.7s1.4-0.7,3.1-1.1c1.7-0.5,3.5-0.6,3.5-0.6s0.5-0.3,1.5-0.6c1-0.3,1.7-0.7,1.7-0.7
		s2.1,0.2,2.4,0c0.3-0.2,1.6-1.2,2.1-1.3c0.5-0.1-0.1-0.2,1-0.2C152,16.8,152.6,17.3,152.2,18.3z"/>
	<path fill="#EAF1FA" d="M207,13.6c0.6-0.4,2.4-1.3,2.4-1.3s0.1-0.7,1.7-0.4c1.6,0.3,1.4,0.3,2.3,0.4c0.9,0.1,1.7,0.1,1.7,0.1
		s0.2,1.2,1.2,0c0.9-1.2,2.3-1.2,1.1-2c-1.2-0.8-1-0.8-1.5-0.9c-0.5-0.1-1.6-0.7-2.1-0.5c-0.5,0.2-1.4,0.3-1.4,0.3l0.3-1.4
		c0,0,0.2-0.5-0.3-0.3c-0.5,0.2-2.3,0.9-2.3,0.9s-0.5,0.6-0.6,0.9c0,0.3-0.4,0.8-0.8,1.1c-0.4,0.3-1.7,1-1.8,1.3
		c-0.1,0.3,0.2,0.6,0,0.9S207,13.6,207,13.6z"/>
	<path fill="#EAF1FA" d="M202.7,9.6c0.2,0-0.5,0.1,1.4,0.4c1.8,0.3,1.8,0.2,2.6,0.1c0.7,0,1-0.8,1-0.8l0.6-1.6l-0.2-1.8
		c0,0,0.7-0.7-0.6-0.9c-1.3-0.1-1.7-1.2-2.2,0c-0.5,1.2-0.8,1.3-0.8,1.3l-0.6-0.6c0,0-0.1-1-0.3-1.3c-0.1-0.3-0.4-0.9-0.4-0.9
		s-0.4-1.1-0.2-1.2c0.2-0.1,0.5-0.4,0.5-0.4l-0.8-1.2l-2.5-0.6c0,0,1.1-0.8-0.7,0.2s-2.8,0.6-4,1.1c-1.2,0.5-1.5,0.7-1.5,0.9
		c0,0.1,0,0.4,0,0.4v1l-0.4,0.6l-1.1,0.6c0,0,0.7,0.4,0.8,0.6c0.1,0.2,1.3,0.3,1.3,0.3s0.7-0.5,1.1-0.9c0.4-0.4,1.4-1.2,2.1-0.8
		c0.7,0.4,0.7,0.4,0.7,0.4l1.8-0.1l1.2-0.4c0,0,0.7,0.1,0.9,0.3s0.2,0.4-0.1,0.5c-0.3,0.2-1,0-1,0l-1.9,0.4L198,5.7l-1,0.2l-0.2,0.4
		c0,0-0.5,0.7-0.1,1c0.4,0.3,0,0.1,0.4,0.3c0.4,0.2,1,0.6,1,0.6l1.1,0.3l1.3-0.2l0.8-0.2c0,0-0.1-0.3,0.3,0.1
		c0.4,0.5,0.7,0.8,0.7,0.8L202.7,9.6z"/>
	<path fill="#EAF1FA" d="M116,44.4c0,0,2.6,0.8,2.7,0.7c0-0.1,0.8-0.7,0.8-0.7s1.6-0.6,0.6-1.5c-1-0.9-2.2-0.8-2.2-0.8l-1.8,1.2
		V44.4z"/>
	<path fill="#EAF1FA" d="M66.6,7.6l1.4,0.5c0,0,0.7,0,1.7,0c1.1,0,1.4-0.2,1.9,0.2c0.5,0.4,0.2,0.9,1.5,0.6C74.5,8.5,75,7.9,75,7.9
		l2-1.2c0,0,0.1,0,0.9-0.2c0.7-0.3,1.5-0.6,1.1-1.2c-0.5-0.6-1.6-0.8-2.2-0.8s-2.5-1.2-2.9-0.9c-0.4,0.2-0.7,1-0.9,1.2
		c-0.2,0.2,0.4,0.4-0.2,0.2c-0.6-0.2-1.3-1.4-1.3-1.4s-0.8,0-1.5,0.7c-0.7,0.7-1,0.3-1,0.3l-2.2-0.7L65,3.5l-1.4,0.6
		c0,0-0.7,0.8-0.6,1.3c0.1,0.4-0.1,0.7,1.4,0.9c1.5,0.2,2.7,0,2.7,0S68,6,68.2,6c0.2,0,0.4,0.3,0.4,0.3s-0.4,0.9-0.7,0.9
		c-0.4,0-1-0.1-1.1,0.2C66.6,7.6,66.6,7.6,66.6,7.6z"/>
	<path fill="#EAF1FA" d="M67.1,11.8c0.1,0.5,1.2,1.5,1.2,1.5l0.4,1.4l-0.2,0.5c0,0-0.5,0.5,0.2,0.6c0.7,0,0.4,0.4,0.9,0
		c0.5-0.4,1.1-0.8,1.1-0.8l0.4,0.3c0,0-0.7,0.6,0.3,0.7c1,0.1,2-0.8,2-0.8l0.5-0.5L72.8,13l-1.5-0.4l-0.8-0.8l-0.8-0.7l-0.4-1
		c0,0-1.4-0.2-1.9-0.2s-1.3-0.6-1.3-0.6s-0.4-1-1.2-0.9c-0.7,0.1-1.1,0-1.1,0l-0.6-1.3h-1.4c0,0-0.3-1.3-0.5-1.5
		c-0.2-0.2-1.2-0.6-1.7-0.2c-0.5,0.4-0.6,0.1-0.6,0.8c0,0.7-0.8-0.6,0,0.7c0.8,1.3,0.7,1,0.9,1.5c0.2,0.5-0.6,0.8-0.6,0.8
		S59,8.1,58.8,7.9c-0.1-0.3-0.8-1.6-1-1.6c-0.2,0-0.3-0.2-0.9,0c-0.6,0.2-0.7,0.9-0.7,0.9s-0.1,0.6-0.6,0.7
		c-0.5,0.1-1.1-0.1-1.1-0.1V7.1l0.8-0.5l0.4-0.3l-0.5-0.3l-2.4,0.3c0,0-0.6-0.4-1.1,0c-0.5,0.4-1,0.6-1,0.6l-0.7,0.9l0.6,0.6L52,8.7
		l0.1,0.5c0,0-0.3,1.3-0.3,1.4s0.3,0.6,0.3,0.6s-0.1,1.1,0.8,1.1c0.9,0,0.4,0.7,1.3,0c0.9-0.7,1.1-0.6,1.7-1.2c0.6-0.6,1-0.9,1-0.9
		c2.1,1.2,2.4,0.8,2.4,0.8l0.8-0.4c0,0,1.1-1.5,0.1,0.2s-0.4,1.6-0.4,1.6l-1.2,0l-1.6,0l-1.7,0.4l-0.3,0.8c0,0-0.5,0.5,0.7,0.2
		c1.2-0.3,1.8-0.6,1.8-0.6l1.2-0.1c0,0-0.2,0.7-0.5,0.9s-1.2,0.7-1.2,0.7l-0.4,0c0,0-0.3-0.1-0.7,0.1c-0.4,0.2-0.8-0.3-0.8,0.3
		c0,0.6,0.4,1.2,0.4,1.2s3.3,1,3.5,1c0.2,0,0.7,0.6,0.7,0.6l1.8-0.3l1.4-2.5c0,0-0.4-0.6,0.3-1.2c0.7-0.6,0.7-0.2,1.1-1.1
		c0.5-0.9,0.5-1.2,0.5-1.2h0.2l1.3-0.4c0,0,1-0.3,1.4-0.4c0.4-0.1,1.3,0.1,1.3,0.1l-0.3,0.7C68.5,11.6,67,11.2,67.1,11.8z"/>
	<path fill="#EAF1FA" d="M24.7,83.9c0,0,1.6-0.3,1.5,0.5c0,0.8-1.3,1.9-1.3,1.9h-1.2L23,87.4l0.8,1.6h-0.5c0,0-1.4,0.3-1.4,0.8
		c0,0.5,0,0.7,0.6,0.8c0.6,0.1,0.7,0.1,1.6,0.1c0.9,0,1.5,0,1.5,0s0.3,0.7-0.6,0.8c-0.9,0.2-1.5,0.4-1.8,0.5c-0.2,0-1.1,0.7-1.4,0.9
		c-0.2,0.3-0.8,0.5-0.8,0.9s1.5,0.4,1.5,0.4s1.2-1.1,2.1-1.4c0.9-0.3,2.3-0.5,2.3-0.5h1.3c0,0,2-0.3,2.6-0.6c0.6-0.3,1.2-1,1.6-1.4
		c0.4-0.5,1.5-1.5,1.5-1.5l-0.6-1.6l-1.9-0.3l-0.7-2l-1.9-2.5l-1.3-1.5l-1-0.7l-0.8-0.3l0.8-2.1c0,0,0.7-1,0.7-1.4
		c0-0.5-1.1-0.9-1.1-0.9L24,75.7c0,0-1.3,1.3-0.3-0.4c1-1.7,0.7-1.4,0.7-1.4s1.3-0.8,0.5-1c-0.8-0.1-2.6-0.2-3.2,0.4
		c-0.6,0.6-1.7,1.9-1.7,1.9s-0.7,1.3-0.8,1.7c-0.1,0.4,0.8,1.4,0.8,1.4l1.7,0.1c0,0,0.2,0.2,0,0.4C21.5,79,21.5,79,21.5,79
		s-1.2-0.9,0,0.3c1.1,1.2,1.5,1.2,1,2c-0.5,0.7-0.6,0.2-0.5,0.7c0,0.6,0.7,1,0.7,1s0.8-0.1,1-0.1C23.9,82.9,26.3,80.7,24.7,83.9z"/>
	<path fill="#EAF1FA" d="M18.1,81.2c0,0-2,0.6-2.1,1.1c-0.1,0.5,0,1.4,0,1.4s-0.6-0.4-1.3-0.2c-0.7,0.2-1.4,1.2-1.4,1.5
		c0,0.3,0.5,1.5,0.5,1.5l0.6,0.7c0,0-0.1,0.1-0.7,0.6c-0.6,0.5-1.3,0.9-1.3,1.3c0,0.4,0.6,1.1,0.8,1.2c0.2,0.1,2,0.7,2,0.7
		s1.3-0.5,2.8-1.4c1.5-0.9,1.8-0.5,2-1.4c0.1-0.9,0-1.9,0-1.9s-1-0.9-0.4-1.4c0.7-0.5,1.4-1.4,1.4-1.4l-0.5-1.8L18.1,81.2z"/>
	<path fill="#EAF1FA" d="M289.9,23.1c0.4,0.1,0.6,0.4,1.7,1.2c1.1,0.7,1.4,0.8,1.4,0.8l3.4,0.4l1.8-0.8l-0.9-0.9l-3.3-0.2
		c0,0-1.3-0.2-1.6-0.4c-0.3-0.2-1.1-0.4-1.3-0.4C290.9,22.8,289.9,23.1,289.9,23.1z"/>
	<path fill="#EAF1FA" d="M287.7,22.7c-0.5,0.4-1.4,1.3-1.7,1.4c-0.3,0.1-1.8,0-1.8,0s-1.7,0.2-2.1,0c-0.4-0.2-1.2-0.3-1.2-0.3
		l-2.2,0.3c0,0-0.6,1.3-0.7,1.4c-0.1,0.1-0.4,0.4-1.3,0c-0.9-0.4-0.9-0.2-2.1-1.1c-1.2-0.9-1.9-0.5-1.5-1.7c0.4-1.2,0-1.5,1-2
		c1-0.5,0.9-0.9,1.7-0.7c0.8,0.2,2.3,1.1,2.6,1.4c0.3,0.3-0.4-0.1,0.3,0.3c0.7,0.4,1.5,0.7,1.7,0.4c0.2-0.4,0.8-1.6,0.8-1.6
		s0.6-0.1,0.9-0.1c0.3,0,0.6,0.3,0.6,0.6c0,0.3,0.1,0.7,0,0.9c-0.1,0.2-0.2,0.7-0.2,0.9c0,0.3-0.1,0.1,0.4,0.4
		c0.4,0.2,0.7,0.3,0.7,0.3s0.2,0.1,0.1-0.4c-0.1-0.4-0.1-0.8-0.1-0.8v-1c0,0,1.2-0.9,1.5-0.9c0.3,0,0.9,0.2,1.1,0.2
		c0.2,0,0.6,0.4,0.9,0.7c0.3,0.3,0.7,0.6,0.7,0.6V22.7z"/>
	<path fill="#EAF1FA" d="M279.8,29.6c0.2,0.1,0.4,0.5,1.4,0.6s2.6,0.1,2.6,0.1l1.3-0.4l-0.8-1.2l-0.9-0.3h-0.6h-2
		C280.8,28.5,278.9,29.1,279.8,29.6z"/>
	<path fill="#EAF1FA" d="M279.1,26.7c0,0-1.2-0.7-0.7,0c0.4,0.7,1.3,1.1,1.3,1.1s0.3,0.9,0.7,0c0.5-0.9,0.5-0.9,0.5-0.9L279.1,26.7z
		"/>
	<path fill="#EAF1FA" d="M348.1,38.7c0.2,0.1,1.8-0.5,1.8-0.5l3.4-0.4c0,0,1.9,0,1.9-0.8c0.1-0.8,1.1-1-0.3-1.2
		c-1.4-0.2-3.1-0.7-4.2-0.5c-1.1,0.2-2.7,1.3-2.7,1.3s-0.7,0.8-0.7,1.2C347.3,38.2,348.1,38.7,348.1,38.7z"/>
	<path fill="#EAF1FA" d="M363.9,60.3c0.3,0.1,1.6-0.4,1.9,0c0.4,0.4,0.5,0.7,1.1,0.9c0.6,0.1,1.9,0.5,1.9,0.5l0.4-0.5l-1.1-1.3
		c0,0-1.1-0.3-1.6-0.6c-0.4-0.2-1.9-0.3-1.9-0.3l-1.3,1L363.9,60.3z"/>
	<path fill="#EAF1FA" d="M54.5,119.8c0,0-1.1-0.4-1.4,0c-0.2,0.4-0.4,1.2-0.4,1.2l1.4,0.6c0,0,0.3-0.2,0.7,0
		c0.4,0.2,1.1,0.5,1.1,0.5l1.3,0.7c0,0,0.3,0.7,0.4,0c0.1-0.7-0.1-1.2,0-1.4c0.1-0.2,0.3-1.1,0-1.1s-0.7,0-0.7,0h-0.7L54.5,119.8z"
		/>
	<path fill="#EAF1FA" d="M45.8,113.8c0,0-0.6,1-0.6,1.2c0,0.1,0.9,0.9,1,1.4c0,0.5-0.5,1-0.5,1.3c0,0.3,1,1,1,1l0.7-0.4l1-1.5
		c0,0,1-0.9,0.5-1.4c-0.5-0.5-1.3-0.8-1.5-1.1c-0.2-0.2,0.2-0.5-0.3-0.5S45.8,113.8,45.8,113.8z"/>
	<path fill="#EAF1FA" d="M46.6,109.8c0,0-0.4,0.7-0.5,1.4c0,0.7,0,1.7,0.5,2c0.5,0.3,0.5-0.7,1.1-1.4c0.6-0.7,0-1.8,0-1.8
		L46.6,109.8z"/>
	<g>
		<path fill="#EAF1FA" d="M215.6,11.5C215.6,11.5,215.6,11.5,215.6,11.5L215.6,11.5z"/>
		<path fill="#EAF1FA" d="M55.8,42.2C55.7,42.3,55.7,42.3,55.8,42.2L55.8,42.2z"/>
		<path fill="#EAF1FA" d="M362.7,47c-3.3-0.4-2.5,1.7-2.5,1.7s-1.5,0-1.8-0.6c-0.2-0.6,0.7-1.7-1.2-3.3c-2-1.5-8-3.9-12-5.3
			c-4-1.3-8.1-1.4-8.1-1.4s-4.7-0.9-4.8,0.4c-0.2,1.3,1.3,1.6,1.5,2c0.2,0.5,0.2,1.5-0.9,1.5c-1,0-3.6-0.8-4.3-1.5
			c-0.7-0.6,0.2-1.1,0.9-1c0.6,0.1,1.6-0.3,1.3-1c-0.3-0.7-2.5-0.6-3.1-0.1c-0.6,0.6-1.1,1.1-2.1,1.2c-1,0.1-2.2,0.3-3.9,0
			c-1.6-0.3-3.6-0.3-4.8-0.3c-1,0-3.1,0.1-3.2-0.3c-0.2-0.5-0.1-1.3,0.2-1.3c0.3-0.2,0.8-0.2,0.7-0.9c-0.1-0.6-2.1-1.9-4.3-2
			c-2.1-0.1-8.6,0.6-8.6,0.6s-2,0.2-2.2,0c-0.2-0.1,1.5-0.5,0.2-1.4c-1.3-1-4.8-1-4.8-1s1.6-0.2,1.4-1.3c-0.2-1-5.9-1.4-6.3-1.4
			c-0.3,0.1-1.7,2.6-1.7,2.6s-0.8-1.3-0.6-1.7c0.3-0.4,1.7-0.8,1.8-1.3c0.1-0.5-4-1.2-6.1-1c-2.1,0.2-3.9-1.3-4-0.1
			c-0.2,1.3-0.2,1.7-0.2,1.7s-2.5-1.1-2.5,0.2c0,1.3,1.3,2.5,1.6,2.8c0.2,0.2-2.9-0.3-5-0.2c-2.2,0-7.1,0.5-7.1,0.5s0.6-1.9-0.4-1.8
			c-1,0-2.2,1.8-2.2,2.3c0.1,0.3-0.4,2-1.5,1.7c-1.2-0.3-4-2.9-4.1-3.7c-0.2-0.9,0.5-1.5,0.6-3.7c0.2-2.3-8.6-2.2-9-2.3
			c-0.4,0-1.3,2.9-1.3,2.9s-3.8-0.3-5.6-0.6c-1.8-0.2-2.1,0-2.1-0.6c0-0.6,0.1-1.6,0-1.7c0-0.1-2.5,0.2-2.9,0
			c-0.5-0.1-0.8-0.3-1.8,0c-1,0.3-2.1,0.2-2.5,0.4c-0.3,0.2-1.4,0.2-1.4,0.2s-0.2,0.5-0.2,0.7c0,0.2-1.1,0.6-1-0.3
			c0.2-1,0.4-1.3,0.2-1.3c-0.2,0-1-0.4-1.3,0c-0.3,0.4-1.7,0.6-2.4,0.7c-0.7,0.1-4.4,1.5-4.8,1.6c-0.3,0.1-3.3,0-3.3,0
			s-0.8,0.7-0.9,0.9c-0.1,0.1-1.1,0.6-1.3,0.1c-0.2-0.4,1-1.9,1.3-2.1c0.4-0.1,0.7-0.1,1.7-0.1c1,0,1.3,0.5,1.8-0.2
			c0.6-0.8,0.2-0.6,0.8-1c0.5-0.5-1.4-0.2,0.7-0.7c2.1-0.5,2.1-0.4,2.5-0.6c0.4-0.3,0.1-0.3,1.2-1c1.1-0.6,1.4-1,2.4-1.3
			c1-0.3,0.6-0.1,1-0.3c0.3-0.3,1.1-0.5,1.3-0.6c0.2-0.2,0.4,0.6,0.4-0.6c0-1.1,0.3-1.2,0-1.7c-0.2-0.6-1.4-1.6-2-1.7
			c-0.6-0.1-1.3-0.4-1.7-0.7c-0.5-0.3-0.6-0.6-1.4-0.7c-0.8-0.1-0.4,0.2-1.2,0c-0.9-0.2-1.5-0.2-2.1,0c-0.6,0.2-1,0.4-1.1,0.6
			c-0.2,0.2-3,1-3,0s1.3-1.3,1.3-1.3l-2.4-0.9l-0.6,0.3c-0.6-0.2-0.1-0.3-0.7-0.3c-0.6,0.1-0.6,0.1-0.6,0.1s-0.9-0.2,0-0.3
			c0.8-0.2,1,0.2,1.3,0c0.2-0.2,0.6,0.3,0.6-0.5c0-0.7,1.3-0.2,0-0.7c-1.3-0.5-2.7-0.5-2.9-0.6c-0.1,0-0.1,0-0.2,0H215
			c-1,0-2.1,0.2-2.2,0.2c-0.2,0.1-0.5,0.3-1,0.6c-0.5,0.4-1.1,0.4-1.3,0.7c-0.2,0.3-0.3,0.5-0.5,1c-0.2,0.6-0.1,0.9-0.1,0.9v0.7
			c-0.1,0.1-0.2,0.1-0.6,0.1c-1.2,0-0.6-0.2-1.6,0c-1,0.2-0.8,0-1,0.2c-0.2,0.3,0.5,0.8,0.5,0.8l0.3,0.3c0,0,0.5,0.1-0.4,0.2h-1.7
			c-0.7,0-0.6,0.2-1.4,0.2c-1,0-1.6,1-2.3,0.7c-0.7-0.2-1.1-0.2-1.2-0.6c-0.1-0.5,0.3-0.4-0.1-0.5c-0.3-0.1-0.9-0.5-1.8-0.4
			c-0.9,0.1-1,0.3-1.3,0.3c-0.2,0.1-1.7,0.6-1.7,0.6l-0.8,0.2l0.1,0.4c-0.1,0-0.1,0-0.2,0.1c0,0-0.2,0-1.2,0.2
			c-2.4,0.5-2.1,0.5-2.7,0.6c-0.6,0.2-0.5,0-1.2,0.2c-0.7,0.2-2,0.5-2,0.5l-1.3,1.1c0,0-0.5,0.2-0.6,0.2c-0.2,0.1-1.4,0.2-1.9,0.4
			c-0.5,0.3-0.7,0.4-0.7,0.4s-0.1,0.4,0,0.6c0.1,0.2,0.4,0.4,0.6,0.5c0.3,0.1,0.5-0.1,0.7,0.5c0.3,0.6,0.6,0.9,0.6,0.9
			s0.6-0.1,0,0.4c-0.5,0.6-0.3,0.9-1.3,0.8c-1-0.1-0.6-0.2-1.7-0.2c-1.1,0,0.2,0.1-1.4,0.1c-1.7,0-0.8-0.1-2.2-0.1
			c-1.3,0,0.5-1.1-2.4,0c-2.9,1.1-3.6,1.6-3.6,1.6s0.6,1.2,1,1.8c0.6,0.6,1,0.9,1.1,1c0.2,0.2,2.6,0.5,2.6,0.5s0.2,0.3,0.2,0.7
			c0.2,0.3,0.2,0.1,0.2,0.7c0.1,0.6,0.3,1-0.2,1c-0.6,0.1-0.6,0.4-1.3,0.1c-0.7-0.2-2-0.6-2.5-1c-0.5-0.4-0.8-0.7-1.3-1.3
			c-0.5-0.6-1-1.3-1.8-1.3c-0.8,0-0.6,0-1.4,0c-1,0-1.8,0.2-1.8,0.6c0,0.4,0.6,0.7,0.9,0.9c0.2,0.2,0.6,0.3,1,0.4
			c0.4,0.2,0.3-0.8,0.4,0.2c0.1,1,0.2,0.6,0.1,1c-0.1,0.3-0.3,0.7-1.1,0.2c-0.8-0.6-0.9-0.9-1.3-0.9c-0.5,0-0.8,0-0.8,0
			s-0.3-0.2-0.3,0.3s-0.6,1-0.2,1.3c0.5,0.3-0.1,0.6,1.1,0.6c1.2,0,0.8-0.2,1.6,0c0.8,0.2,1.1-0.2,1.2,0.3c0.1,0.5,0.3,0.7,0,1
			c-0.4,0.2-0.6,1-1.3,0.2c-0.7-0.8-1-1.1-1-1.1l-0.6-0.1c0,0-0.9,0.3-1,0.4c-0.2,0.1-1.7-0.1-1.8-1.7c-0.1-1.7-0.4-1.3,0.1-2.2
			c0.4-0.9,1.3-1.3,0.5-1.8c-0.9-0.6-1.7-1.8-1.8-0.7c-0.1,1.1,0.6,2.1,0.6,2.6c0,0.6,0,1-0.2,1.3c-0.3,0.2-0.6,0.4-0.9,0.5
			c-0.2,0.1-1.5-0.2-1.6,0.1c-0.1,0.2-0.2,0.8-0.2,1c0,0.3,0.6,1,0.6,1.2c0.1,0.3,0.4,0.8,0.5,1c0.2,0.2,1-0.6,1,0.6
			c-0.2,1.2-0.8,1.3-1,1.5c-0.1,0.2-0.7,0.2-0.6,1c0,0.9,0,1.5,0.3,1.7c0.3,0.2,0.5,0.5,1.8,0.2c1.3-0.3,1.3-0.6,2-0.6
			c0.6,0-0.4-0.8,1,0c1.5,0.8,1.2,0.3,1.6,1c0.4,0.6,0.4,0.7,1,1.3s0.5,1.1,0.2,1.3c-0.3,0.2-0.9-0.3-0.6,0.6c0.3,1,0.8,1.2,1,1.4
			c0.2,0.2,0.2,0.9-0.6,0.4c-1-0.5-1.2-0.1-1.2-0.9c0-0.8-0.2-0.4-0.1-1.3c0.1-1,0.4-1,0.1-1.7c-0.3-0.6,0.7-0.9-0.8-1.2
			c-1.4-0.4-1.9-0.6-2.4-0.3c-0.6,0.4-0.6,0.1-0.9,0.6c-0.3,0.6-1.1,0.7-1.1,1.4c0.1,0.8,0.6,1.2,0.7,1.7c0.1,0.5,0.5,0.4-0.2,1
			c-0.6,0.6-1.7,1.3-1.9,1.6c-0.3,0.4-1.5,1.3-1.7,1.5c-0.2,0.2-1.1,0.2-1.4,0.3c-0.3,0.2,1.6,0.2-0.3,0.2c-1.9-0.1-0.6,0.8-2.4-0.2
			c-1.7-1-2-1.5-2-1.5s1.3,0.2,2.7,0.3c1.3,0.2,4.9-3.7,4.9-4.2c0-0.5-0.8-1.5-0.8-1.5l-1.3-1.9c0,0-0.1-2.4,0.2-3
			c0.2-0.6,0.2-0.2,0.2-0.9c0-0.7-0.5-2.3-0.5-2.3s-0.6-0.3-0.6-0.5c0-0.2-0.5-0.7,0.6-1.7c1.1-1,1.1-1.5,1-1.8
			c-0.1-0.2-0.5-1.3-0.8-1.3c-0.3,0-5.4-1.3-5.6-0.3c-0.2,1-0.2,2.6-0.6,2.9c-0.2,0.4-1.7,1.6-2.8,2c-1,0.4-1.6,0.2-1.5,0.7
			c0.2,0.5,0.4,1.3,0.8,1.5c0.3,0.2,0.6,0.7,0.6,1s-0.6,0.8-0.6,1.1c-0.1,0.4-1.1-0.1-0.1,0.9c1.1,1,0,0.5,1.5,1.1
			c1.5,0.6,1.7,0.3,1.8,0.8c0.2,0.4,0.3,0.2,0.3,1c0,0.7,2.1,2.2-0.4,1.6c-2.6-0.6-2.4-0.3-3.5-1.2c-1.2-1-0.5-1.1-2.5-2.1
			c-2-1-1.3-1-2.9-1.1c-1.7-0.2-3.6-0.3-3.6-0.3s-1.6,1-2.2,0.2c-0.6-0.9-2.1-2-2.4-2c-0.2,0-1.2,0-1.2,0.6s0.3,1.4,0.8,1.4
			c0.5,0.1,0.2-0.3,1.5,0.6c1.3,1,1.5,0.9,1.8,1.4c0.3,0.5,0.3,0.9,0.3,1.1c0,0.2-0.3,0.8-0.6,1c-0.2,0.2,0.1,0.2-0.6,0.3
			c-0.6,0.2-1.9,1-1.9,0c-0.1-1,0-1.1,0-1.6c0-0.4,0.6-0.7-0.2-0.5c-0.8,0.2-1.5-0.3-1.7,0.5c-0.2,0.8-0.1,1.3-0.4,1.3
			c-0.3,0.1-1.5,0.2-1.7,0c-0.3-0.2-2-0.9-2-0.9s-0.5,0.3-0.5,0.6c0,0.2,0.6,0.6-0.2,0.8c-0.6,0.2-1.3,0.2-1.7,0.2
			c-0.2,0-0.2,0.3-0.7-0.5c-0.4-0.8,1-2.2-1-1.5c-2,0.8-2.6,1-3.1,1.1c-0.5,0.2-1.3,0-2.1,0.4c-0.7,0.3-1.4,0.7-1.9,1.3
			c-0.6,0.6-0.1,0.9-1.4,0.9c-1.3,0-2.7-0.2-2.8,0.4c0,0.6-0.2,1.9-0.6,2.3c-0.3,0.5,0.6,1.1-0.6,0.6c-1.3-0.6-1.7-0.2-1.8-1.3
			c-0.2-1-0.6-2.3,0.3-2.7c0.9-0.4,1.3-0.6,1.3-0.6s1.2-1-0.6-1.5c-1.8-0.6-2.5-1.5-3.2-0.4c-0.8,1-1.6,0.8-1,1.7
			c0.6,0.9,1,1.2,1.2,1.3c0.2,0.2,0.2,0.6,0.2,1c0,0.3-0.9,0.6-0.9,0.8c0,0.3,1,1,1.1,1.1c0.2,0.2-0.1,1-0.2,1.3
			c-0.2,0.2-0.6,0.7-0.9,0.7c-0.3,0-0.3-0.2-1.1-0.5c-0.7-0.3-0.3-0.8-1.2-0.6c-0.9,0.2-0.6,0-1.7,0.8c-1.1,0.8-2.1,1.1-2.4,1.4
			c-0.2,0.3-0.4,0.2-0.2,0.6c0.2,0.3,0.2,0.4,0.5,0.9c0.2,0.4,0.2,0.7,0.1,1c0,0.2,0.6,0.9-1.2,0.6c-1.8-0.2-1.6-0.1-2.5-0.6
			c-0.9-0.5-1-0.9-1.9-1c-0.9-0.2-1.3-0.7-1.4-0.1c-0.2,0.6-0.2,1.3,0.2,1.6c0.4,0.3,1.4,0.2,1.8,0.6c0.4,0.4,0.7,0.3,0.6,1
			c-0.2,0.8,1.7,2-1.3,1c-2.9-1-3.4-0.9-3.7-1.7c-0.3-0.9-0.7-1.4-0.6-1.8c0.1-0.5-0.7,0.2-0.7-1.7c-0.1-1.9,0.9-2-0.6-2.1
			c-1.5-0.1-2.3-0.1-2.6-1.2c-0.2-1.1,1.2-0.6,3.4,0.2c2.2,0.8,1.4,0.8,2.6,0.8c1.2,0.1,1,0.2,3.5,0.2c2.5,0,3.7,0.4,4.2-0.3
			c0.4-0.6,0.3,0.6,0.6-1c0.3-1.6,2.4-1,0.3-2.5c-2-1.6,2.7,0.2-2.8-2.2c-5.6-2.3-6.1-2.7-6.1-2.7s-0.9-0.6-2.4-0.6
			c-1.5,0-2.1,0.9-3-0.1c-0.9-1-1.2-1.5-1.4-1.6c-0.2-0.1-1.8-0.2-2.5-0.2c-0.8,0-1.8,1.4-1.2-0.2c0.6-1.7,2-1.7,0.6-2.2
			c-1.4-0.6-2.5-1.4-3.1-1c-0.5,0.5-1.9-0.2-2.8,0c-0.8,0.2-2.9,1-2.9,1.1c-0.1,0.2-0.6,0.3-1.6,0.3c-1,0-1.3-0.7-2,0.1
			c-0.8,0.8-1.2,0.9-1.7,0.9c-0.6,0-1.2,0-1.2,0s-0.3,1-0.3,1.2c0,0.2-2.1,0.3-2.1,0.3s-1.1-0.1-1.1,0.2c0,0.2,0,0.6,0,0.6
			s-0.4-1-1.3-0.5c-1,0.6-1,0.8-1,1.1c0,0.2,1.3,0.9,0,1c-1.3,0.1-3.6-0.5-3.6-0.5s-0.2,0.1-0.4,0.2c-0.2,0.1-3-0.6-3.4,1
			c-0.1,0.3-0.2,0.5-0.2,0.6c0.2-0.2,0.6-0.3,1.7,0c2.5,0.7,2.7,0.5,3,0.5c0.1,0,0.1,0,0.1-0.1c0,0,0.1,0,0.2,0.1
			c0.6,0.4,0.6,1.2,0.6,1.2s-0.8,0.2-1.7,0.9c-0.8,0.6-2.3,1.2-2.3,1.2l-1.7,0.7c0,0,0.2,0.7-0.2,1.4c-0.5,0.8-1,1.2-1.2,1.3
			c-0.2,0.2-0.8,0.5-1,1.1c-0.2,0.6-0.4,1.2-0.2,1.7c0.1,0.6-0.2,1-0.6,1.2c-0.2,0.2-0.8,0.4-1.3,0.6c-0.4,0.2-0.8,0.3-1,0.3
			c-0.2,0.1-0.7,0.1-1,0.4c-0.2,0.2-0.6,0.5-0.4,0.7c0.2,0.2,0.6,0.2,0.7,0.4c0,0.2,0.5,0.4-0.2,0.6c-0.7,0.2-1.1-0.2-1.9,0.2
			c-0.9,0.3-0.7,0.2-1.3,0.6c-0.6,0.4-1.6,0.6-2.2,1c-0.7,0.5-1.4,0.2-2.1,0.9c-0.6,0.6-0.3,0.2-1.1,1.3c-0.8,1.1-1.5,1.3-1.5,1.9
			c0,0.5-0.2,2.9,0,3.2c0.1,0.4-0.1,1,0.8,1.7c0.8,0.6,0.4-0.1,1.2,1c0.8,1.1,0.7,1.5,0.7,2.1s-1.9,0.5,0,1c1.9,0.6,2.2,0.6,2.9,0.6
			c0.7,0-0.1,0.5,1.2-0.3c1.2-0.9,1.1-1.5,1.8-2.1c0.7-0.6,0.5-1.7,1.2-0.6s1,1,1.6,1.9c0.5,0.9,0.9,1.1,1.5,2
			c0.6,0.9,0.9,1.8,1,2.4c0.1,0.6,0.1,0.6-0.2,1.1c-0.3,0.4-0.8,0.5-1.6,0.6c-0.8,0.2-1.1-0.2-1.3,0.4c-0.2,0.6-0.6,0.7-0.1,1.3
			c0.5,0.6,0.4,1,1.3,1c0.8,0,3.6,0.6,4.8-0.7c1.3-1.4,0.9-2.5,1.8-3s1.7,0.2,2.2-0.7c0.6-1,0.5-0.3,0.6-1.7
			c0.2-1.5-0.2-3.5,0.1-3.6c0.3-0.2,3.7-2.3,3.7-3.3c0-1-3.4-0.7-3.5-1.8c0-1-0.5-2.1,0.2-3.1c0.8-0.9,0.1-0.3,1.1-1.5
			c1-1.2,0.9-1.3,1.3-1.7c0.5-0.6,2-1,3.6-2.1c1.6-1,1.7-1,1.8-1.5c0.1-0.5-0.1-1.4,0.1-1.9c0.1-0.6,0.1-1.7,1.1-2.1
			c1-0.3,1.1-0.9,2.2-0.6c1.1,0.2,2,0.3,2.8,0.9c0.8,0.6,1.5,0.3,1.4,1.6c-0.1,1.3-0.2,1.7-1.3,2.3c-1.1,0.5-1.7,0.6-2.4,0.8
			c-0.6,0.2-1.4,0.4-2.1,1c-0.7,0.6-2.1,1.5-2.1,1.7c0,0.2-0.2,0.7-0.2,1.7c0,1,0.1,1.6,0.2,2.1c0.2,0.6,0.2,1.9,0.4,2.1
			c0.2,0.1,0.4,0.5,0.9,1c0.5,0.6,1.4,1.3,2.4,1.5c0.9,0.2,0.7,0.8,2,0c1.3-0.7,0.4-0.6,2.1-1c1.7-0.5,1.9-0.6,2.3-0.6
			c0.4-0.1,1.7-0.6,2.5-0.1c0.7,0.4,1.5,0.6,1.7,1.4c0.2,0.8,0.1,1-1,1.3c-1,0.3,0.1,0.6-1.3,0.3c-1.3-0.4-0.2-0.6-1.8-0.6
			c-1.7,0-1.7-0.3-2.5,0c-0.8,0.4-3.2,3.4-3.2,3.6c0.1,0.2,0.6,1.4,0.6,1.4s0.4,1.4,0.4,1.6s-0.2,0.8-0.3,1c-0.2,0-1-1.6-2.2-2.1
			c-1.2-0.7-2.3-1.2-2.5-0.7c-0.2,0.5-0.7,1.1-1,1.9c-0.2,0.8-0.3,1.7-0.3,2.2c0,0.4,0.1,0.8,0.2,1.3c0.2,0.5,0.3,1.2,0.2,1.3
			c-0.2,0.1-0.6,0.1-1.1,0.1c-0.6,0.1-1,0.2-1.2,0.6c-0.2,0.4-0.7,1-0.8,1.3c-0.2,0.2,0.7,0.2-0.2,0.2c-0.8-0.1-1.3-0.4-1.5-0.7
			c-0.2-0.2-1.7-1.5-2.1-1.1c-0.3,0.3-1.4,0.7-1.7,1.2c-0.2,0.5-0.6,0.4-1.3,0.7c-0.6,0.4-2.2,0.5-2.5,0.6c-0.2,0.2-0.7,0.2-0.9,0.2
			c-0.2,0-0.9-0.8-1-0.8c-0.1,0-0.7-0.5-1.4-0.1c-0.7,0.4-1,0.7-1.7,0.7c-0.6,0.1-1.2,0.5-1.5-0.1c-0.2-0.6-0.6-0.8-0.9-1.3
			c-0.3-0.6-0.9-0.8-0.8-1.7c0.1-1-0.1-1.6,0.5-1.9c0.6-0.4,0.6,0.2,1.2-1.2c0.6-1.3,0.9-1.6,0.6-2.2c-0.3-0.6-0.7-1-1.2-1
			c-0.5,0-2,0.4-2.1,0.7c-0.1,0.3,0.1,0.9-0.2,1.3c-0.3,0.3-1,0.5-1.3,0.7c-0.2,0.2-0.7,0.9-0.9,1.3c-0.2,0.5-0.4,1-0.1,1.5
			c0.2,0.6,1.3,1.5,1.5,1.7c0.2,0.2,0.3,0.5,0.4,0.6c0.2,0.2,0.4,0.6,0.2,1.2c-0.2,0.6-0.5,0.6-0.9,0.8c-0.4,0.3-0.6,1.3-2.9,1
			c-2.3-0.3-2.5-0.7-2.9,0.3c-0.6,1-1,1.7-1.2,2.1c-0.2,0.3-0.6,1-1.1,1.8c-0.5,0.8-0.5,0.8-1.7,1.1c-1.3,0.2-1.8,0-2.1,0.7
			c-0.3,0.6-0.6,1-0.6,1.3c0,0.2,0.2,0.5-1,0.9c-1.1,0.5-1,0.5-1.3,0.5c-0.5,0-0.8,0.2-1.4,0s-1.5-1.3-1.9-0.5
			c-0.3,0.9,0.3,1.5,0.3,1.5s0.2,0.3,0.2,0.5c0,0.2,0.9,0.2-1,0.3c-2,0.1-2.4-0.2-2.5,0.1c-0.2,0.2-1.2-0.2-1.4,0.6
			c-0.2,0.7-0.1,1.3,0.2,1.5c0.4,0.2,0.8-0.1,2.5,1.2c1.7,1.3,2.1,1.6,2.4,1.9c0.3,0.2,0.9,0.7,1,1c0.1,0.2,0.6,1.7,0.1,2.7
			c-0.4,1.1-0.8,1.8-0.8,2.2s1.6,1-0.1,1.2c-1.7,0.2-2.1,0.3-3.1-0.1c-1.1-0.5-1.1-1-2.2-1c-1.1,0-1.3-0.3-2-0.1
			c-0.8,0.2-1,0.2-2.2,0.2c-1.3-0.1-1.9-0.6-2.7,0c-0.7,0.6-1,0.7-1,1.3s-0.2,1.3,0,2c0.2,0.6,0.6,1,0.6,1.4c0,0.3,0.6,0.4,0,1.6
			c-0.6,1.2-1.1,1.7-1.3,2.2c-0.2,0.6-0.4,0.7-0.5,1.9c-0.1,1.2-1.7,1.7,0.4,2.5c2.2,1,1.8,0.9,2.8,1c1,0.1,1.5,0.2,1.8,0.6
			c0.3,0.3,0.5,0.9,0.6,1c0.2,0,0.3,1.3,1.3,1c1-0.3,1.1-0.3,1.3-0.7c0.1-0.4-0.2-1,0.7-1.1c1-0.1-0.5-0.5,1.9-0.1
			c2.4,0.3,1.6,1.3,2.6,0.3c1.1-1,0.6-0.2,1.5-1.7c1-1.5,1.3-1.8,1.4-2.2c0.1-0.3,0.1-1.4,0.3-2.3c0.3-0.9,0.1-1.3,0.8-1.8
			c0.6-0.5,3-1.5,4-2c1-0.6,0.9-0.1,1-0.8c0.2-0.8,0.3-0.5,0.2-1.3c-0.2-0.9-0.2-1.7-0.2-1.7s1.3-0.2,1.8-0.1c0.4,0.2,1-0.1,1.5,0.2
			c0.4,0.4-0.6,0.6,0.9,0.6s1.2,0.7,2.6-0.3c1.3-1.1,1.6-1.7,1.9-1.9c0.3-0.2,0.6-0.8,1-0.7c0.6,0.1,1.8-0.9,2.8,0.9
			c1,1.8,1.9,3.8,4.3,5.2c2.4,1.4,4,2,4.8,2.9c0.8,0.9,1,3,0.7,3.5c-0.2,0.5-0.2,1.2,0.2,1.3c0.3,0,0.6-0.6,1.3-1.2
			c0.6-0.7,0.9-2.1,0.9-2.2c0-0.2-1-1-1-1s0-0.6,0.3-0.8c0.3-0.2,1-0.6,1.3-0.4c0.3,0.2,0.7,0.8,0.9,1c0.2,0.2,0.9,0.6,1,0.4
			c0.1-0.1,0.4-0.7,0.1-1c-0.2-0.3-0.9-1.3-1.1-1.4c-0.2-0.1-2.7-0.6-3.3-1.4c-0.6-0.8-0.7-1.2-0.9-1.1c-0.2,0.1-1.3,0.2-1.6,0.1
			c-0.3-0.2-1-1.1-1.3-1.8c-0.4-0.7-0.5-1.4-1-1.7c-0.5-0.4-1-0.2-1.3-1.3c-0.2-1.1-1.4-2.1,0.2-2.9c1.7-0.7,2.3-0.2,2.5,0.2
			c0.2,0.4,0.2,1.2,0.6,1.9c0.4,0.8,0.7,1.1,1.8,1.7c1.2,0.6,1.9,0.7,2.1,1c0.2,0.2,0.1,0.6,0.4,0.9c0.4,0.3,0.6,0.6,1,0.6
			c0.3,0,0.7,0.1,0.7,0.1l0.9,0.6c0,0,0.2,0.4,0.5,0.6c0.2,0.3,1.7,2.7,1.7,3.1c0,0.3-0.2,0.4,0.2,0.9c0.3,0.6,0.9,1.7,1.1,2
			c0.2,0.3,0.4,0.6,0.4,0.6s1.4,0.6,1.5,0.7c0,0.2-0.4,1-0.5,1.3c0,0.2-0.2,0.6-0.1,0.7c0.2,0.2,0.1,0.3,0.5,0.6
			c0.4,0.3,1,0.7,1,0.7l0.2,0.6c0,0-0.2,0.6,1.2,0.6c1.3-0.2,1.5,0.3,1.6-0.5c0.1-0.8,0-1,0.2-1.6c0.2-0.6,0.2-0.2,0.6-1
			s0-1.4-0.5-1.8c-0.5-0.5,0-0.2-1-0.9c-0.9-0.6-1.1-0.3-1.1-1c0-0.7-0.1-0.8,0-1c0.1-0.2,0.2-0.6,0.3-0.6c0.1,0,0.5,0,0.6,0.3
			c0.2,0.4,0.5,0.8,0.5,0.8s-0.2,1.1,0.8,0.3c1-0.9,0.9-0.6,0.6-1.2c-0.2-0.5-0.4-1-0.4-1.1c0-0.2,0.1-0.3,0.7-0.3
			c0.6,0,0.6-0.4,1.1,0.2c0.4,0.5-0.4,0.8,0.5,0.9c1,0.2,2.1,0.2,3.2-0.2c1-0.3,0.4-0.2,1.4-0.6c1-0.3,0.7-0.6,1.3-0.5
			c0.6,0.2,0.8,0.3,0.9,0.2c0-0.1,0.3-0.5-0.4-0.9c-0.8-0.4-1.4-0.3-1.7-1c-0.2-0.7-0.2-0.4-0.2-1c0-0.6-0.5-1,0.2-1.5
			c0.6-0.5,0.6,0.3,1.1-1c0.6-1.3,0.3-2.7,1.3-3.2c0.9-0.4,0.9-0.1,1.2-0.7c0.4-0.6,0.6-1.3,0.6-1.3s0.8-0.5,1.2-0.9
			c0.4-0.3-0.5-1,0.6-0.6c1.1,0.4,1.3,1.3,2.1,1.5c0.9,0.2,2.4-0.2,2.4-0.2l-0.2,1.1h-1.3c0,0-0.4,0.3-0.4,0.5
			c0,0.2-0.3,0.7,0.3,0.7c0.6,0.1,1-0.1,1.1,0.2c0.2,0.4,0.3,0.7,0.4,0.9c0.1,0.1-1.3,0.2,0.2,0.2c1.6,0,2.1-0.1,2.3-0.3
			c0.2-0.2-0.2-0.2,0.4-0.5c0.6-0.3,0.3,0.1,0.6-0.3c0.3-0.4,1-0.3,0.4-0.8c-0.6-0.4-1.3-0.2-1.5-0.4c-0.3-0.2-0.5-0.2-0.5-0.6
			c0-0.5-0.2-0.7,0.6-1c0.7-0.2,1-0.3,1.4-0.6c0.4-0.3,0.4-0.1,1.1-0.6c0.7-0.4,1-0.8,1.4-0.9c0.5,0,1.4-0.6,1.6-0.1
			c0.2,0.5,0.7,0.7,0.2,1.5c-0.5,0.8-0.2,1-0.7,1.3c-0.4,0.3-1.2,0.6-1.3,0.7c-0.2,0-0.7,0.2-0.7,0.5c0,0.4,0.1,0.4,0.3,0.8
			c0.2,0.4,0.6,0.6,0.8,0.9c0.2,0.3,1.6,0.6,2.1,1v0.1c-0.1,0-0.7-0.2,1.1,0.6c2.2,1.1,1.8,0.6,2.2,1.1c0.4,0.6,1.1,1,1.4,1.2
			c0.2,0.2,1.3,1.5,0.8,2.5c-0.5,1-1.1,0.9-1.8,1c-0.7,0.2-0.5-0.1-1.4,0.2c-1,0.2-1.6,0.2-1.6,0.2s-1.8-0.2-2.5-0.2s-0.8,0-1.6-0.2
			c-0.8-0.3-1.3-0.8-1.7-1c-0.4-0.2-0.3-0.3-1.4-0.5c-1.1-0.2-1.3-0.4-1.8-0.3c-0.6,0-1,0.2-1.6,0.3c-0.6,0.2-1.7,0.4-1.9,0.6
			c-0.2,0.3-0.7,0.5-0.7,0.5s-2.6,0.5-3.1,0.3c-0.5-0.1-1,0.2-1,0.3c0,0.1,0.7,0.3,0.8,0.4c0.1,0,0.2,0.2,0.2,0.2
			c0,0.2-0.2,0.3-0.4,0.3c-0.2,0-0.9,0.2-0.9,0.2l-0.8,0.1h-0.8c0,0-0.4,0-0.9,0c-0.5,0-1.2,0-1.6,0.2c-0.5,0.2-0.7,0.1-0.9,0.4
			c-0.2,0.4-0.4,0.6-0.3,0.7c0,0.2,0.5,0.4,0.6,0.5c0,0,0,0.1,0.1,0.1v0.1c0,0.2-0.3,0.2-0.6,0.6c-0.2,0.3-0.2,1-0.2,1
			s1,0.7,1.2,0.7c0.1,0,0.1,0,0.1,0c0.1,0.2-0.2,0.2,0.2,0.8c0.4,0.6,0.5,0.8,0.6,1c0.2,0.1-0.2-0.7,0.4,0.2c0.7,0.9,0.5,0.9,1,1.2
			c0.4,0.3,0.5,0.6,0.9,0.6c0.4,0.1,2.8,0.1,2.8,0.1s-0.2,1.9,0.6,0.5c0.6-1.4,0.3-1.7,0.4-1.7c0.2,0,1.3-0.3,1.6,0.1
			c0.3,0.3,0.6,0.6,1,1c0.2,0.4,0.9,0.6,0.9,0.6s2.6-0.3,2.9-0.6c0.2-0.2-0.6-0.3,0.7-0.5c1.3-0.2,1-0.5,1.8-0.2
			c0.9,0.2,1.5,0.2,1.6,0.6c0.1,0.5-0.3,1.3-0.6,1.5c-0.2,0.2-0.2-0.1-0.5,0.8c-0.3,1-0.4,1.8-0.4,1.8s-0.2,1.3-0.4,1.7
			c-0.2,0.4-0.2,0.6-0.4,1c-0.2,0.4-0.4,1.1-0.4,1.1l-0.2,0.7c0,0-0.6,0.4-0.7,0.7c-0.1,0.2-0.1,0.3-0.3,0.6
			c-0.2,0.3-0.3,0.7-0.8,0.9c-0.4,0.2-0.9,0.2-1,0.2c-0.2,0.1-0.5,0.1-1-0.1c-0.6-0.2-0.6-0.5-1.2-0.6c-0.6-0.1-0.6-0.3-1.5-0.3
			c-0.9-0.1-1.3,0.1-1.3,0.1s-0.6-0.1-0.9,0.3c-0.3,0.4,0.8,0.7-1,0.9c-1.8,0.1-1.9,0.1-2.1,0c-0.2-0.2,0.3-0.4-1.4-0.9
			c-1.7-0.4-1.8-0.5-2.6-0.6c-0.7-0.1-1.2,0.1-1.6-0.2c-0.3-0.3-0.4-0.6-0.9-0.6c-0.4-0.2-0.9,0.1-1-0.2c-0.2-0.2,0.2-0.5-0.3-0.7
			c-0.6-0.3-0.9-0.6-1.6-0.7c-0.6-0.2-1.1-0.5-1.6-0.2c-0.5,0.2-2,1-2.1,1.1c-0.2,0.1-0.7-0.1-1,0.5c-0.3,0.6-0.5,1.1-0.5,1.3
			c0,0.1,0.1,0.7,0.1,0.7s0.3,0.4,0.3,0.6c0.1,0.2-0.1,0.4-0.2,0.6c-0.1,0.1,0.1,0.1-0.5,0.4c-0.5,0.4-1.1,0.6-1.4,0.6
			c-0.4,0,0.1,0.4-1-0.2c-1-0.7-1.4-1.1-2.1-1.3c-0.7-0.2,0.8-0.2-1.2-0.3c-1.9-0.2-2,0.1-2.1-0.3c-0.2-0.4,0.4-1.5-1.5-2.4
			c-1.8-0.9-3-0.3-3.3-0.4c-0.3-0.1-0.6,0.3-0.9-0.2c-0.2-0.6,0.1-1-0.6-1.2c-0.7-0.2-1.4-0.2-1.5-0.2c-0.1,0-1.3-0.4-1.4-0.4
			c-0.2,0-0.7,1-0.5-0.2c0.2-1.1,0.2-1.2,0.3-1.3c0.2-0.2,1.2-1.3,1.2-1.3c0.1-0.1,0.1-0.7,0.2-1c0-0.3-0.2-1.9-0.1-2.2
			c0.2-0.2,0.7-0.5,0.2-0.6c-0.6-0.1-1.6-0.5-2.1-0.2c-0.5,0.2-1.1,0.4-1.8,0.6c-0.8,0.2-2.4,0.2-2.4,0.2l-1.4-0.2l-1.5-0.1
			c0,0-0.4-0.3-1.7,0c-1.3,0.3-1.7,0.3-2.7,0.3c-0.9,0-2.4-0.7-3.3-0.3c-0.8,0.4-2.6,1.5-2.7,1.6c-0.1,0-1.3,1.1-1.8,1.4
			c-0.6,0.4-0.6,0.6-1.2,0.6H26c-0.2,0-1-0.2-1-0.2s-1.4-0.1-1.6,0c-0.2,0-1.1,0-1.1,0s-0.2-0.2-0.5-0.2c-0.2-0.1,0-0.3-0.6-0.5
			c-0.6-0.1-0.6-0.4-0.8-0.1c-0.2,0.2-0.4,0.9-0.4,0.9c0,0.1,0,0.3-0.4,0.8c-0.4,0.6-0.9,0.8-1,1c-0.1,0.2-0.5,0.4-0.6,0.6
			c-0.1,0.2,0.6,0.5-0.3,0.6c-1,0.1-1,0-1.2,0.2c-0.2,0.2-2.9,3.2-3,4c-0.1,1-0.2,1.6-0.2,1.7c0.1,0.2,0.2,0.6,0.2,1
			c0.1,0.3-0.6,1.5-1.2,1.9c-0.5,0.4-0.7,0.2-0.9,0.6c-0.2,0.4-0.2,0.5-1.4,0.9c-1.2,0.4-1,0.2-1.7,0.5c-0.8,0.3-0.7,0.8-1.3,1.7
			c-0.6,1-0.3,1.3-1.2,1.9c-0.9,0.6-1,0.4-1,0.8c-0.1,0.3-0.2,0.5-0.2,1c0,0.6-0.1,1.1-0.5,1.5c-0.4,0.5-0.6,0.6-0.9,0.9
			c-0.3,0.3-0.6,0.2-1,1c-0.5,0.7-0.6,0.9-0.9,1.5c-0.3,0.6-0.6,0.7-0.6,1.3c0,0.6-0.1,0.9,0,1.3c0.1,0.5,1.6,2.5,1.6,2.5s0,1,0,1.6
			c0,0.6,0.1,1.2,0.2,1.6c0.2,0.4,0.2,1,0.2,1.4c-0.1,0.4,0,1-0.5,1.6c-0.4,0.5-0.6,0.4-1,0.8c-0.4,0.5-0.6,0.2-1,1
			c-0.3,0.9-0.3,0.8-0.5,1.4c-0.1,0.7,0,4.2,0.7,4.7c0.7,0.5,0.8,0.6,2,1.1c1.2,0.5,1.7,0.2,1.9,0.9c0.2,0.6,0.1,1,0.3,1.4
			c0.3,0.4,1.1,1,1.1,1s0.6,0.6,0.8,1.2c0.2,0.6-0.2,0.9,0.6,1.3c1,0.5,0.7-1.4,2.1,0.6c1.3,2,2.2,2.4,2.5,2.5
			c0.3,0.1,0.7,0.3,0.9,0.5c0.2,0.2,2,2.9,4.1,3.2c2.1,0.2,2.1-0.1,2.7-0.6c0.6-0.5,0.2-0.6,0.8-0.8c0.6-0.2,1.7-0.3,2.1-0.1
			c0.5,0.2,2.1,0.6,4.6,0.6s2.5,0.4,3.5-0.3c1-0.6,0.6-0.5,1.7-1c1-0.4,3.3-1.2,3.8-1.3c0.5-0.2,1.7,0,1.7,0s1.5,0.2,2.1,1
			c0.6,0.6-0.2,1.1,1.3,2c1.6,0.8,0.6,0.6,2.5,0.6c1.8,0,1.6-0.2,2.7-0.1c1,0.1,1.6-0.2,1.8,0.2c0.2,0.5,0.4,0.7,0.2,1.9
			c-0.2,1.1-0.3,1.7-0.7,2.5s-1.2,1.4-1.3,1.8c0,0.3-0.2,3.3,0.4,4.1c0.6,0.8,1,1,1.4,1.7c0.3,0.7,0.8,1,1.4,1.8
			c0.6,0.7,0.6,0.7,1,1.3c0.5,0.6,1,1,1.3,1.5c0.3,0.4,0.6,0.7,0.8,1.3c0.2,0.6,0.6,3.3,0.8,4c0.1,0.7,0.3,0.7,0.3,1.6
			c0,0.8-0.6,0.6,0,1.1c0.6,0.6,1.1,0.2,1.3,1.4c0.1,1.3,0.4,1.6,0.1,2.4c-0.2,0.8-1.8,2-2.2,2.5c-0.4,0.6-0.7,1.1-0.9,1.4
			c-0.1,0.4-0.2,2.7-0.6,4.3c-0.4,1.6-0.6,1.3-0.3,2.4c0.3,1,0.2,1.5,0.6,2.1c0.3,0.5,1.3,1.7,1.3,1.7s0.6,0.2,1,0.8
			c0.3,0.6-0.7-0.2,0.5,1.4c1.3,1.7,1.9,2.2,1.9,2.6c0,0.3,0.1,0.6,0,0.7c0,0.2-0.3,3.6-0.1,4.4c0.2,0.9-0.1,0.5,0.3,1.7
			c0.5,1.2,1,2.1,1,2.1s1,0.7,1.3,1.7c0.4,1-0.3,1,0.6,2.1c1,1.1,1.6,1.5,2.2,2.8c0.6,1.2,1.2,2.2,1.2,2.2l0.4,0.4
			c0,0-1.2,2.5,1.5,4.4c2.6,2,5.6-1,5.6-1s4.5,2.7,10.7-2.9c6.3-5.6,7.1-8.4,7.1-8.4s0.7-2.9,0.6-4c-0.2-1.1,4.4-1.3,4.8-5.6
			c0.5-4.4-1.7-5.9-1.7-5.9s7.3-4.7,8.7-5.8c1.4-1.2,2.9-5.4,2.1-8.3c-0.6-3-2.9-3.5-2.9-8.1c0-4.6,0.9-6.5,5.1-11.1
			c4.2-4.6,9.8-7.5,11.7-10.9c1.7-3.4,4.6-8.6,4.4-10.6c-0.2-2.1,0.1-1.4-5.8,0c-5.9,1.3-6.5,1.7-7.6-0.2c-1.2-1.9-1-3.6-3.6-5.4
			c-2.5-1.9-3.3-1.4-4-2.9c0,0-0.7-4-1.5-4.9c-0.8-1-1.9-2.3-1.9-4.4c0-2.1-3.3-4.5-3.5-4.7c-0.2-0.1-0.9-2.9-1.1-4.4
			c-0.3-1.5-4.3-6.9-4.3-6.9s1.3,0.6,2.9,1.7c1.6,1,3.4,4.5,4.8,5.5c1.4,1,3.1,3,3.7,4.4c0.7,1.3-0.6,3.1,0.4,4.1
			c1,1,4.4,4.3,5.4,5.9c1,1.6,0.8,5.6,2,7.5c1.3,2,1.3,1.9,6,0.2c4.8-1.7,15.3-6.4,17.6-8.4c2.3-2,5.3-6.2,5.7-7.5
			c0.3-1.3-3.4-2.3-4.4-3.1c-1-0.9-1.7-3.5-1.7-4c0-0.4-1.8,0.7-2.5,2c-0.6,1.3-5.3,2.9-5.8,1.9c-0.4-1,0.1-2.8-0.4-3.9
			c-0.4-1-3.9-2.3-4.4-3.5c-0.6-1.3-2.7-2.6-1.1-3.8c1.5-1.1,3.3-1.1,4.3,0.9c1,1.9,3.7,5.5,6.2,5.3c2.5-0.2,4-1.8,4.7-1.1
			c0.7,0.7,0.4,3.6,5.5,3.7c5.1,0.2,11.8-1,11.8-1s0.4,2,1.6,2.6c1.3,0.6,1.6,2.2,2.4,2.4c0.8,0.2,2.4,0.5,2.4,0.5s-1.9,1-1.6,1.4
			c0.3,0.5,1,2.5,3.2,2.1c2.1-0.3,2.6-3.3,2.6-3.3s0.4,9.4,1.8,13.3c1.4,4,4.5,11.5,5.7,12.1c1.2,0.6,3.3-0.2,4.8-3.3
			c1.5-3-0.1-8.5,1-9.6c1.1-1.1,5.4-3.2,8.6-5.6c3.2-2.5,5-5.9,5-5.9s1.8,0.9,3.2,0.4c1.3-0.6,3.3-1.7,3.3-1.7s0.5,3.1,1.6,4.7
			c1.1,1.7,2.6,0.2,3.1,2.2c0.5,2-0.9,4.8,0.5,5.6c1.3,0.9,4.5-1.9,4.5-1.9s0.8,5.2,1.6,7.4c0.8,2.1,0.2,7,0.8,8.3
			c0.6,1.3,3.2,2.8,3.6,3.3c0.4,0.6,0.2,5.4,0.4,6.1c0.3,0.6,4.4,3.2,5.8,3.7c1.3,0.6,0.2-2.2-0.8-4c-1-1.7-0.4-3-0.8-4.5
			c-0.5-1.5-4.2-0.4-4.8-3.3c-0.6-2.9-1.8-4.2-1.8-4.2s0.6-2.2,1.3-3.6c0.6-1.3,0.2-2.6,2.5-1.6c2.2,1,2.9,3.8,4.4,4.3
			c1.6,0.5,0.5,2.1,1.3,3.1c0.8,1,6.7-3.3,7.8-5.6c1.1-2.1,1-5.5-2.7-8.8c-3.8-3.3-3.5-6.7-2.6-7.1c0.9-0.4,4.2-3.4,5.3-2.9
			c1.1,0.6-0.2,3.3,1.3,3.5c1.4,0.2,0.7-1.7,1.5-2.9c0.7-1.1,5.9-0.2,10.2-2.4c4.4-2.2,6.7-6.7,7.1-7.9c0.4-1.2,3.2-3.3,3.2-5.5
			c0-2.2-2.1-5.8-3.2-7.1c-1-1.3-2.3-2.1-2.3-2.1s2-3.2,3.6-3.7c1.7-0.6,2.4,1.2,3,0c0.6-1.3-1.6-2.4-3-2.4c-1.5,0-2.3,1.3-2.9,1.3
			c-0.6,0-0.2-1.7-1.1-1.8c-1-0.2-2.4,0-2.5-0.2c-0.2-0.3,0-1.7,1.9-1.9c1.9-0.2,3.6-4.7,5.6-4.5c2.1,0.1-0.7,3.1-0.6,4
			c0.1,0.9,4.4-1.1,5.2-1.1c0.8,0,2.1,0.6,2.1,1.5s-1.9,1.2-1.7,1.9c0.1,0.8,3.8,0.1,4,1.3c0.2,1.2-0.2,3.5-0.8,4.6
			c-0.6,1-0.1,2.1,2.8,1c2.9-1.1,4.2-1.5,3.3-3.9c-1-2.4-3.9-4.1-4-5.3c-0.2-1.1,3.7-2.1,4-3.3c0.3-1.2,0-2.5,1.1-3.1
			c1.2-0.6,5.7-1,7.5-1.8c1.8-0.8,8.9-9.6,9.6-11.4c0.6-1.8,1-7.3,1.5-8.2c0.5-1,1-1.9,0-3.2c-1-1.3-2.7-3.2-4.5-2
			c-1.8,1.2-2.6,1.8-2.9,0.8c-0.3-1.1-1-1.6-1.6-1.7c-0.6-0.2-1.3-1-1.3-1s8.2-6.2,10-7.6c1.7-1.3,3-3.3,3-3.3s8.6-0.1,10.4-0.5
			c1.8-0.3,1.3-1.3,2.5-1.1c1.3,0.2,2.4,1.3,3.1,1.6c0.8,0.3-1.6,0.6,2,0.7c3.6,0.2,3.9-0.9,3.9-0.9l-1.8-1.1c0,0,3.5-2.9,4.8-3.7
			c1.3-0.9,1.7-2.5,3.3-1.9c1.7,0.6,3.6,0.3,3.6,0.3s-0.9,1-0.7,2.2c0.2,1.2,3.1-0.9,4.4-1.8c1.3-1,1.9-2.7,1.9-2.7s2.9-0.6,3.3,0
			c0.4,0.6-2.1,1.3-3.7,3.6c-1.6,2.5-6.5,6.1-7,6.8c-0.5,0.7-4.6,1.7-5.9,4.4c-1.3,2.7-0.7,9.1,0.2,10.9c0.9,1.8,0,2.3,1.7,2.6
			c1.8,0.3,3.3-3.9,4.4-5.3c1-1.5,1.9-2.2,3-2.2c1.2,0,0-2.4,0.6-3.3c0.6-1,2.5,0.2,2.9-0.5c0.5-0.6-1.7-3.1-1.7-3.1s1.4,0,1.6-0.7
			c0-0.8-2.3-1.2-2.3-1.2s1.2-2.2,1.7-2.7c0.6-0.4,1.4-2.1,1.4-2.1s0.4-0.8,2.1-0.4c1.7,0.4,2.1-1.1,2.1-1.1s0,0.6,0.3,1.1
			c0.3,0.5,1.7-1.4,3-1.6c1.3-0.2,3.3,1.2,3.8,1.8c0.5,0.6,1-1,2.7-2.3c1.7-1.3,5.2-2.6,7.3-3.4c2.1-0.8,2.4-2,2.4-2
			s1.8,1.6,2.9,1.6c1.1,0,1.7-1.8,0.4-3.5c-1.3-1.7-1.4-2.6-1.4-2.6s-1.1-0.3-1.8-0.6c1.2,0.2,3.7,0.2,4.8-1
			c1.5-1.7,0.4-3.6,0.4-3.6s1-0.5,1.9,0c0.8,0.6,1,2.5,3.1,2.5c2.1-0.2,2.5,2.6,4.4,2.8c2,0.2,3.1-1,3.6-1.6c0.6-0.6,0-2.3,0-2.3
			s2.7,1.7,4,0.6C368.2,50.4,366,47.3,362.7,47z M127.9,111.5l-2.1,0.1h-1.2l0.7,2.1l0.6,0.5l0.4,1.4v2.5c0,0,0.3,0.9-0.2,0.9
			c-0.6,0-1.3,0-1.3,0s-1.3,0.3-2.3,0.3c-1,0-2.4-0.6-2.4-0.6s-0.5-0.8-0.9-1.2c-0.5-0.5-1.4-0.9-1.6-0.9s-1.1-0.1-0.3-1.1
			c0.8-1.1,1.2-1.7,1.2-1.7s1.3,0.3,0.9-1.7c-0.4-2-0.8-3.5-2.4-5.3c-1.6-1.9-1.3-1.1-1.8-2.5c-0.6-1.4-2-0.3-0.7-2.3
			c1.3-2,1.1-2.8,3.3-3.6c2.3-0.8,3.1-1.6,4.5-1.3c1.3,0.3,2.7,1.8,2.7,1.8s0.9,1.4,0.5,2.1c-0.5,0.6-0.8,0.5-1.7,0.7
			c-1,0.2-2.5,0.6-2.5,0.6s-0.4,1-0.2,1.4c0.2,0.3,1,2.1,1,2.1l1.3,0.6c0,0,1.1,0.3,1.4,0.6c0.2,0.3-0.9,1.5-0.9,1.5l0.1,0.9
			l0.9-0.3c0,0,1.1-1.1,1.4-1.1c0.3,0,0.3,0.2,1,0.8c0.6,0.6,0.7,0.9,0.7,1.3C127.9,110.6,127.9,111.5,127.9,111.5z M137.7,106
			c-1.6,1.7-1.2,2.1-1.4,1.1c-0.2-1-0.6-1.5-0.9-3.6c-0.2-2.1,1.3-3.1,1.7-3.4c2.8-2.3,4.2-0.9,4,1
			C141.1,102.9,139.4,104.3,137.7,106z M169.6,99.3c-1.4,0.6-1.4,0-3.6,0c-2.2,0.1-2,0.3-3.1,0.8c-1,0.6-0.9,1.5-1.2,1.9
			c0,0-0.5-0.1-0.9-0.4c-0.4-0.3,0.1-0.3,0.4-1.7c0.2-1.4,1-1,1.7-1.4c0.6-0.6,1.9-0.2,2.6,0c0.7,0.2,1,0.2,2.3,0.2
			c1.3,0,2.8-0.4,3.3-0.2C171.6,98.8,171,98.7,169.6,99.3z M224.4,82.2c-0.9,1.9-5.3,5.2-7.1,5.4c-1.7,0.2,2.1-1.7,4-4.4
			c1.8-2.7,2.9-4.6,2.9-5.8c0.1-1.2,1,0,1,0S225.4,80.3,224.4,82.2z"/>
	</g>
</g>
</svg>
