<?xml version="1.0" encoding="utf-8"?>
<!-- Generator: Adobe Illustrator 18.1.1, SVG Export Plug-In . SVG Version: 6.00 Build 0)  -->
<svg version="1.1" id="图层_1" xmlns="http://www.w3.org/2000/svg" xmlns:xlink="http://www.w3.org/1999/xlink" x="0px" y="0px"
	 viewBox="0 0 19 30" enable-background="new 0 0 19 30" xml:space="preserve">
<g>
	<path fill="#F0862A" d="M16.9,2.9C15.2,1,12.8,0,9.5,0S3.8,1,2.1,2.9C0.5,4.8,0.2,7,0.2,8.2v13.6c0,1.2,0.2,3.4,1.9,5.3
		C3.8,29,6.2,30,9.5,30s5.7-1,7.4-2.9c1.6-1.9,1.9-4.2,1.9-5.3V8.2C18.8,7,18.5,4.8,16.9,2.9L16.9,2.9z M9.5,10.5
		c-0.7,0-1.2-0.5-1.2-1.2V6.6c0-0.7,0.5-1.2,1.2-1.2c0.7,0,1.2,0.5,1.2,1.2v2.6C10.7,9.9,10.2,10.5,9.5,10.5L9.5,10.5z M17.8,21.8
		c0,1.2-0.4,7.3-8.3,7.3c-7.9,0-8.3-6-8.3-7.3V8.2C1.2,7,1.6,1.2,9,1v3.5C8,4.7,7.3,5.6,7.3,6.6v2.6c0,1,0.7,1.9,1.7,2.1v4
		c0,0.3,0.2,0.5,0.5,0.5c0.3,0,0.5-0.2,0.5-0.5v-4c1-0.2,1.7-1.1,1.7-2.1V6.6c0-1-0.7-1.9-1.7-2.1V1c7.4,0.2,7.8,6.1,7.8,7.2V21.8z
		 M17.8,21.8"/>
</g>
</svg>
